<?xml version="1.0" encoding="UTF-8" standalone="no"?>
<svg xmlns="http://www.w3.org/2000/svg" viewBox="0 0 24 24">
<style>
	g path { stroke: none; }
	g.root { display: none; }
	g.root:target { display: inline; }
	g line { stroke: black; }
	g circle { stroke: black; }
	g polyline { stroke: black; }
</style>
<g class="root" id="arrow_down" data-name="arrow-down">
	<path d="M20.104 15.199a0.969 0.969 0 0 1-0.271 0.679L11.991 24L4.149 15.877A0.969 0.969 3.878 0 1 4.178 14.54h0a0.969 0.969 0 0 1 1.367 0l6.446 6.679L18.418 14.54a0.969 0.969 0 0 1 1.367 0A0.969 0.969 3.878 0 1 20.104 15.199Z" />
	<path d="M12.96 0.969V22.604a0.969 0.969 0 0 1-1.939 0V0.969a0.969 0.969 0 1 1 1.939 0Z" />
</g>
<g class="root" id="arrow_left" data-name="arrow-left">
	<path d="M7.114 18.889a0.553 0.553 0 0 1-0.393-0.166L0 12.002L6.722 5.274a0.553 0.553 0 0 1 0.785 0.785L1.564 12.002L7.506 17.944a0.553 0.553 0 0 1-0.393 0.945Z" />
	<path d="M23.448 12.554h-22.663a0.553 0.553 0 0 1 0-1.105h22.663a0.553 0.553 0 0 1 0 1.105Z" />
</g>
<g class="root" id="arrow_right" data-name="arrow-right">
	<path d="M16.874 5.114a0.58 0.58 0 0 1 0.392 0.16L23.988 12.002L17.267 18.723a0.553 0.553 0 0 1-0.785 0a0.553 0.553 0 0 1 0-0.768L22.424 12.002L16.482 6.06a0.553 0.553 0 0 1 0-0.785A0.553 0.553-0.012 0 1 16.874 5.114Z" />
	<path d="M0.541 11.449H23.203a0.553 0.553 0 0 1 0 1.105H0.541a0.553 0.553 0 0 1 0-1.105Z" />
</g>
<g class="root" id="arrow_up" data-name="arrow-up">
	<path d="M11.112 5.691L0.389 16.482A1.23 1.23 5.377 0 0 0.389 18.277a1.23 1.23 0 0 0 1.663 0L12.028 8.301l9.975 9.975A1.23 1.23 5.377 0 0 23.665 18.277A1.197 1.197 5.377 0 0 23.665 16.615L23.665 16.515L12.826 5.724a1.23 1.23 0 0 0-1.663 0Z" />
</g>
<g class="root" id="article" data-name="article">
	<path d="M20.672 3.124h2.562A0.766 0.766 0 0 1 24 3.888V21.202a2.202 2.202 0 0 1-2.198 2.198H3.012A3.019 3.019 0 0 1 0 20.388V1.347A0.749 0.749 0 0 1 0.746 0.6H19.927a0.746 0.746 0 0 1 0.746 0.746V3.124ZM19.92 22.332a2.185 2.185 0 0 1-0.316-1.13V1.667H1.067v18.72a1.951 1.951 0 0 0 1.944 1.944ZM22.933 4.191H20.672V21.202a1.13 1.13 0 1 0 2.261 0ZM2.861 3.184H10.547a0.72 0.72 0 0 1 0.72 0.72v4.26a0.72 0.72 0 0 1-0.72 0.72H2.861a0.72 0.72 0 0 1-0.72-0.72v-4.26A0.72 0.72 0 0 1 2.861 3.184ZM10.2 4.252H3.209V7.817H10.2Zm2.875 10.613h4.826a0.647 0.647 0 0 1 0.643 0.643v4.83A0.647 0.647 0 0 1 17.9 20.981H13.073a0.647 0.647 0 0 1-0.643-0.643v-4.83A0.647 0.647 0 0 1 13.073 14.866Zm4.404 1.068H13.5v3.983H17.478ZM18.414 3.719a0.535 0.535 0 0 1-0.533 0.534H14.825a0.534 0.534 0 0 1 0-1.068H17.88A0.535 0.535 0 0 1 18.414 3.719Zm0 4.632a0.535 0.535 0 0 1-0.533 0.534H12.725a0.534 0.534 0 0 1 0-1.068H17.88A0.535 0.535 0 0 1 18.414 8.35Zm0-2.316a0.535 0.535 0 0 1-0.533 0.534H12.725a0.534 0.534 0 0 1 0-1.068H17.88A0.535 0.535 0 0 1 18.414 6.035Zm0 4.702a0.535 0.535 0 0 1-0.533 0.534H2.678a0.534 0.534 0 0 1 0-1.068H17.88A0.535 0.535 0 0 1 18.414 10.737Zm0 2.363a0.535 0.535 0 0 1-0.533 0.534H2.678a0.534 0.534 0 0 1 0-1.068H17.88A0.534 0.534 0 0 1 18.414 13.099ZM11.045 15.461a0.535 0.535 0 0 1-0.533 0.534H2.677a0.534 0.534 0 0 1 0-1.068H10.512A0.535 0.535 0 0 1 11.045 15.461Zm0 2.407a0.535 0.535 0 0 1-0.533 0.534H2.677a0.534 0.534 0 0 1 0-1.068H10.512A0.535 0.535 0 0 1 11.045 17.871Zm-1.903 2.408a0.535 0.535 0 0 1-0.533 0.534H2.677a0.534 0.534 0 0 1 0-1.068h5.932A0.535 0.535 0 0 1 9.143 20.278Zm1.37-0.534a0.534 0.534 0 1 1-0.533 0.534A0.534 0.534 0 0 1 10.512 19.745Z" />
</g>
<g class="root" id="award" data-name="award">
	<path d="M23.486 13.608l0.419 0.246l-0.235 0.427c-0.655 1.184-1.28 2.051-2.206 2.431l-0.379-0.922c0.492-0.202 0.92-0.647 1.453-1.539a2.601 2.601 0 0 0-1.662-0.123c-0.858 0.23-1.631 0.913-2.234 1.973l-0.867-0.493c0.739-1.298 1.721-2.144 2.843-2.444A3.693 3.693-16.107 0 1 23.486 13.608Zm-1.985 4.165l0.361 0.345l-0.345 0.36c-1.118 1.171-2.258 1.763-3.387 1.763-0.055 0-0.108-0.001-0.162-0.004-0.913-0.045-1.808-0.482-2.657-1.293l-0.361-0.345l0.345-0.36C17.202 16.239 19.698 16.052 21.501 17.773Zm-1.086 0.391c-1.229-0.891-2.706-0.744-4.022 0.403a2.898 2.898 0 0 0 1.623 0.675l0-0.001C18.777 19.28 19.585 18.916 20.415 18.165Zm3.089-9.708c-2.489-0.166-4.281 1.578-4.465 4.338l0.995 0.066c0.135-2.029 1.223-3.293 2.886-3.41-0.157 1.152-0.567 1.965-1.219 2.418l0.57 0.819c1.011-0.703 1.582-1.947 1.699-3.701l0.031-0.498Zm-3.613 0.834c-0.624-1.936-0.079-3.513 1.421-4.234 0.28 1.132 0.198 2.039-0.242 2.701l0.831 0.552c0.682-1.026 0.755-2.396 0.215-4.072l-0.153-0.474l-0.474 0.153c-2.371 0.765-3.395 3.049-2.547 5.682ZM2.913 15.79c-0.493-0.203-0.918-0.647-1.453-1.539a2.594 2.594 0 0 1 1.662-0.123c0.858 0.23 1.631 0.913 2.234 1.973l0.867-0.493c-0.739-1.298-1.721-2.144-2.843-2.444a3.698 3.698 0 0 0-2.87 0.444l-0.419 0.246L0.328 14.28c0.655 1.184 1.28 2.051 2.206 2.431Zm5.794 2.449l0.345 0.36l-0.361 0.345c-0.851 0.813-1.744 1.247-2.657 1.293-0.054 0.004-0.108 0.004-0.162 0.004-1.132 0-2.27-0.592-3.387-1.763l-0.345-0.36l0.361-0.345C4.302 16.052 6.796 16.24 8.707 18.239Zm-1.1 0.326c-1.315-1.147-2.791-1.292-4.022-0.403 0.829 0.754 1.636 1.119 2.397 1.078h0A2.899 2.899-16.107 0 0 7.607 18.565ZM1.731 12.687l0.57-0.819C1.647 11.415 1.237 10.602 1.08 9.45c1.662 0.118 2.751 1.38 2.886 3.41l0.996-0.068c-0.183-2.76-1.971-4.505-4.465-4.34l-0.498 0.034l0.031 0.498C0.149 10.74 0.72 11.985 1.731 12.687ZM2.931 7.757c-0.442-0.664-0.522-1.569-0.242-2.702 1.5 0.721 2.045 2.3 1.423 4.234l0.948 0.306c0.849-2.632-0.174-4.915-2.547-5.682l-0.474-0.153l-0.153 0.474c-0.541 1.676-0.468 3.046 0.215 4.072Zm15.052 2.766c0 5.889-5.508 8.999-5.743 9.127a0.497 0.497 0 0 1-0.482 0c-0.235-0.128-5.743-3.238-5.743-9.127V8.378a0.499 0.499 0 0 1 0.465-0.498c2.317-0.151 5.144-2.828 5.174-2.854a0.499 0.499 0 0 1 0.69 0c0.03 0.026 2.857 2.704 5.174 2.854A0.499 0.499-16.107 0 1 17.986 8.378Zm-0.997-1.702c-2.049-0.349-4.171-2.047-4.987-2.76-0.817 0.711-2.938 2.41-4.987 2.76v1.702c0 4.642 3.958 7.456 4.987 8.11 1.027-0.655 4.987-3.481 4.987-8.11Zm-5.159-0.895a0.498 0.498 0 0 1 0.642 0.29l0.774 2.044l2.029 0.105a0.499 0.499 0 0 1 0.311 0.867l-1.587 1.452l0.497 2.061a0.499 0.499 0 0 1-0.749 0.539l-1.74-1.086L10.264 15.284a0.499 0.499 0 0 1-0.749-0.539l0.497-2.063l-1.587-1.452a0.499 0.499 0 0 1 0.311-0.867l2.029-0.105l0.774-2.044A0.498 0.498-16.107 0 1 11.827 7.925Zm0.173 1.874l-0.423 1.117a0.499 0.499 0 0 1-0.439 0.321l-1.164 0.06l0.926 0.847a0.499 0.499 0 0 1 0.148 0.484l-0.281 1.16l0.97-0.605a0.499 0.499 0 0 1 0.528 0l0.97 0.605l-0.281-1.16a0.499 0.499 0 0 1 0.148-0.484l0.926-0.847l-1.164-0.06a0.499 0.499 0 0 1-0.439-0.321Zm-0.464-1.585v0h0Z" />
</g>
<g class="root" id="blogs" data-name="blogs">
	<path d="M21 14.74L3 0L3.336 23.134l5.155-5.632l3.866 6.498l4.819-2.838L13.571 15.054Zm-5.621 5.989L12.823 22.235l-4.105-6.931l-4.116 4.495L4.354 2.816l13.148 10.755l-6.173 0.26Z" />
</g>
<g class="root" id="btn_arrow" data-name="btn-arrow">
	<path d="M16.723 5.012a0.78 0.78 0 0 1 0.55 0.229l6.726 6.726L17.273 18.768a0.78 0.78 0 0 1-1.085 0a0.764 0.764 0 0 1 0-1.07l5.656-5.656L16.188 6.296a0.764 0.764 0 0 1 0-1.085A0.703 0.703 0 0 1 16.723 5.012Z" />
	<path d="M0.764 11.203H22.929a0.764 0.764 0 0 1 0 1.529H0.764a0.764 0.764 0 0 1 0-1.529Z" />
</g>
<g class="root" id="calendar" data-name="calendar">
	<path class="fill-secondary" d="M3.305 12.091h1.996a0.341 0.341 0 0 0 0.341-0.342V10.353a0.341 0.341 0 0 0-0.341-0.34h-1.996a0.341 0.341 0 0 0-0.341 0.34v1.397A0.341 0.341-104.566 0 0 3.305 12.091Zm-0.067-1.739a0.067 0.067 0 0 1 0.067-0.067h1.996a0.067 0.067 0 0 1 0.067 0.067v1.397a0.068 0.068 0 0 1-0.067 0.067h-1.996a0.068 0.068 0 0 1-0.067-0.067Zm0.067 2.53h1.996a1.133 1.133 0 0 0 1.132-1.132v-1.398a1.135 1.135 0 0 0-1.132-1.131h-1.996a1.133 1.133 0 0 0-1.132 1.132v1.397A1.133 1.133-104.566 0 0 3.305 12.882Zm-0.857-2.53a0.858 0.858 0 0 1 0.857-0.857h1.996a0.859 0.859 0 0 1 0.857 0.857v1.397a0.859 0.859 0 0 1-0.857 0.858h-1.996a0.859 0.859 0 0 1-0.857-0.858Zm5.987 2.53h1.996a1.133 1.133 0 0 0 1.132-1.132V10.353a1.133 1.133 0 0 0-1.132-1.132h-1.996a1.132 1.132 0 0 0-1.131 1.132v1.397A1.133 1.133-104.566 0 0 8.435 12.882Zm-0.857-2.53a0.858 0.858 0 0 1 0.857-0.857h1.996a0.859 0.859 0 0 1 0.858 0.857v1.397a0.859 0.859 0 0 1-0.858 0.858h-1.996a0.859 0.859 0 0 1-0.857-0.858Zm0.857 1.739h1.996a0.342 0.342 0 0 0 0.342-0.342V10.353a0.341 0.341 0 0 0-0.342-0.34h-1.996a0.341 0.341 0 0 0-0.34 0.34v1.397A0.342 0.342-104.566 0 0 8.435 12.091Zm-0.067-1.739a0.067 0.067 0 0 1 0.067-0.067h1.996a0.067 0.067 0 0 1 0.067 0.067v1.397a0.068 0.068 0 0 1-0.067 0.067h-1.996a0.067 0.067 0 0 1-0.067-0.067ZM13.567 12.091h1.996a0.342 0.342 0 0 0 0.342-0.342V10.353a0.341 0.341 0 0 0-0.342-0.34H13.567a0.341 0.341 0 0 0-0.342 0.34v1.397A0.342 0.342-104.566 0 0 13.567 12.091Zm-0.067-1.739a0.067 0.067 0 0 1 0.067-0.067h1.996a0.067 0.067 0 0 1 0.067 0.067v1.397a0.068 0.068 0 0 1-0.067 0.067H13.567a0.068 0.068 0 0 1-0.067-0.067Zm0.067 2.53h1.996a1.133 1.133 0 0 0 1.132-1.132V10.353a1.133 1.133 0 0 0-1.132-1.132H13.567a1.133 1.133 0 0 0-1.132 1.132v1.397A1.133 1.133-104.566 0 0 13.567 12.882Zm-0.858-2.53a0.859 0.859 0 0 1 0.858-0.857h1.996a0.859 0.859 0 0 1 0.858 0.857v1.397a0.859 0.859 0 0 1-0.858 0.858H13.567a0.859 0.859 0 0 1-0.858-0.858Zm5.989 2.53h1.996a1.133 1.133 0 0 0 1.132-1.132V10.353a1.133 1.133 0 0 0-1.132-1.132h-1.996a1.132 1.132 0 0 0-1.131 1.132v1.397A1.133 1.133-104.566 0 0 18.697 12.882Zm-0.857-2.53a0.858 0.858 0 0 1 0.857-0.857h1.996a0.858 0.858 0 0 1 0.857 0.857v1.397a0.859 0.859 0 0 1-0.857 0.858h-1.996a0.859 0.859 0 0 1-0.857-0.858Zm0.857 1.739h1.996a0.341 0.341 0 0 0 0.34-0.342V10.353a0.341 0.341 0 0 0-0.34-0.34h-1.996a0.341 0.341 0 0 0-0.34 0.34v1.397A0.341 0.341-104.566 0 0 18.697 12.091Zm-0.067-1.739a0.067 0.067 0 0 1 0.067-0.067h1.996a0.067 0.067 0 0 1 0.067 0.067v1.397a0.067 0.067 0 0 1-0.067 0.067h-1.996a0.067 0.067 0 0 1-0.067-0.067ZM3.305 16.554h1.996a0.341 0.341 0 0 0 0.341-0.341V14.816a0.342 0.342 0 0 0-0.341-0.342h-1.996a0.342 0.342 0 0 0-0.341 0.342v1.398A0.341 0.341-104.566 0 0 3.305 16.554Zm-0.067-1.738a0.068 0.068 0 0 1 0.067-0.067h1.996a0.068 0.068 0 0 1 0.067 0.067v1.398a0.067 0.067 0 0 1-0.067 0.067h-1.996a0.067 0.067 0 0 1-0.067-0.067Zm0.067 2.53h1.996a1.133 1.133 0 0 0 1.132-1.132V14.816a1.135 1.135 0 0 0-1.132-1.132h-1.996a1.133 1.133 0 0 0-1.132 1.132v1.398A1.133 1.133-104.566 0 0 3.305 17.347Zm-0.857-2.53a0.859 0.859 0 0 1 0.857-0.858h1.996a0.859 0.859 0 0 1 0.857 0.858v1.398a0.859 0.859 0 0 1-0.857 0.858h-1.996a0.859 0.859 0 0 1-0.857-0.858Zm5.987 2.53h1.996a1.133 1.133 0 0 0 1.132-1.132V14.816a1.133 1.133 0 0 0-1.132-1.132h-1.996a1.133 1.133 0 0 0-1.131 1.132v1.398A1.133 1.133-104.566 0 0 8.435 17.347Zm-0.857-2.53a0.858 0.858 0 0 1 0.857-0.858h1.996a0.859 0.859 0 0 1 0.858 0.858v1.398a0.859 0.859 0 0 1-0.858 0.858h-1.996a0.859 0.859 0 0 1-0.857-0.858Zm0.857 1.738h1.996a0.341 0.341 0 0 0 0.342-0.341V14.816a0.342 0.342 0 0 0-0.342-0.342h-1.996a0.342 0.342 0 0 0-0.34 0.342v1.398A0.341 0.341-104.566 0 0 8.435 16.554Zm-0.067-1.738a0.068 0.068 0 0 1 0.067-0.067h1.996a0.067 0.067 0 0 1 0.067 0.067v1.398a0.067 0.067 0 0 1-0.067 0.067h-1.996a0.067 0.067 0 0 1-0.067-0.067ZM13.567 17.347h1.996a1.133 1.133 0 0 0 1.132-1.132V14.816a1.133 1.133 0 0 0-1.132-1.132H13.567a1.133 1.133 0 0 0-1.132 1.132v1.398A1.133 1.133-104.566 0 0 13.567 17.347Zm-0.858-2.53a0.859 0.859 0 0 1 0.858-0.858h1.996a0.859 0.859 0 0 1 0.858 0.858v1.398a0.859 0.859 0 0 1-0.858 0.858H13.567a0.859 0.859 0 0 1-0.858-0.858Zm0.859 1.738h1.996a0.341 0.341 0 0 0 0.342-0.341V14.816a0.342 0.342 0 0 0-0.342-0.342H13.567a0.342 0.342 0 0 0-0.342 0.342v1.398A0.341 0.341-104.566 0 0 13.567 16.554Zm-0.067-1.738a0.067 0.067 0 0 1 0.067-0.067h1.996a0.068 0.068 0 0 1 0.067 0.067v1.398a0.067 0.067 0 0 1-0.067 0.067H13.567a0.067 0.067 0 0 1-0.067-0.067Zm5.197 2.53h1.996a1.133 1.133 0 0 0 1.132-1.132V14.816a1.133 1.133 0 0 0-1.132-1.132h-1.996a1.132 1.132 0 0 0-1.131 1.132v1.398A1.133 1.133-104.566 0 0 18.697 17.347Zm-0.857-2.53a0.858 0.858 0 0 1 0.857-0.858h1.996a0.859 0.859 0 0 1 0.857 0.858v1.398a0.859 0.859 0 0 1-0.857 0.858h-1.996a0.859 0.859 0 0 1-0.857-0.858Zm0.857 1.738h1.996a0.341 0.341 0 0 0 0.34-0.341V14.816a0.341 0.341 0 0 0-0.34-0.342h-1.996a0.341 0.341 0 0 0-0.34 0.342v1.398A0.341 0.341-104.566 0 0 18.697 16.554Zm-0.067-1.738a0.068 0.068 0 0 1 0.067-0.067h1.996a0.068 0.068 0 0 1 0.067 0.067v1.398a0.067 0.067 0 0 1-0.067 0.067h-1.996a0.067 0.067 0 0 1-0.067-0.067Zm-15.325 6.2h1.996a0.341 0.341 0 0 0 0.341-0.342V19.277a0.34 0.34 0 0 0-0.341-0.34h-1.996a0.34 0.34 0 0 0-0.341 0.34V20.674A0.341 0.341-104.566 0 0 3.305 21.016Zm-0.067-1.739a0.067 0.067 0 0 1 0.067-0.066h1.996a0.067 0.067 0 0 1 0.067 0.066V20.674a0.067 0.067 0 0 1-0.067 0.067h-1.996a0.067 0.067 0 0 1-0.067-0.067Zm0.067 2.53h1.996a1.133 1.133 0 0 0 1.132-1.133V19.277a1.135 1.135 0 0 0-1.132-1.13h-1.996a1.132 1.132 0 0 0-1.132 1.13V20.674A1.135 1.135-104.566 0 0 3.305 21.809Zm-0.857-2.53a0.858 0.858 0 0 1 0.857-0.857h1.996a0.859 0.859 0 0 1 0.857 0.857V20.674a0.859 0.859 0 0 1-0.857 0.859h-1.996a0.859 0.859 0 0 1-0.857-0.859Zm5.987 2.53h1.996a1.135 1.135 0 0 0 1.132-1.133V19.277a1.132 1.132 0 0 0-1.132-1.13h-1.996a1.132 1.132 0 0 0-1.131 1.13V20.674A1.133 1.133-104.566 0 0 8.435 21.809Zm-0.857-2.53a0.857 0.857 0 0 1 0.857-0.857h1.996a0.858 0.858 0 0 1 0.858 0.857V20.674a0.859 0.859 0 0 1-0.858 0.859h-1.996a0.859 0.859 0 0 1-0.857-0.859Zm0.857 1.739h1.996a0.342 0.342 0 0 0 0.342-0.342V19.277a0.341 0.341 0 0 0-0.342-0.34h-1.996a0.34 0.34 0 0 0-0.34 0.34V20.674A0.342 0.342-104.566 0 0 8.435 21.016Zm-0.067-1.739a0.067 0.067 0 0 1 0.067-0.066h1.996a0.067 0.067 0 0 1 0.067 0.066V20.674a0.068 0.068 0 0 1-0.067 0.067h-1.996a0.067 0.067 0 0 1-0.067-0.067ZM13.567 21.016h1.996a0.342 0.342 0 0 0 0.342-0.342V19.277a0.341 0.341 0 0 0-0.342-0.34H13.567a0.341 0.341 0 0 0-0.342 0.34V20.674A0.342 0.342-104.566 0 0 13.567 21.016Zm-0.067-1.739a0.067 0.067 0 0 1 0.067-0.066h1.996a0.067 0.067 0 0 1 0.067 0.066V20.674a0.068 0.068 0 0 1-0.067 0.067H13.567a0.068 0.068 0 0 1-0.067-0.067Zm0.067 2.53h1.996a1.135 1.135 0 0 0 1.132-1.133V19.277a1.132 1.132 0 0 0-1.132-1.13H13.567a1.132 1.132 0 0 0-1.132 1.13V20.674A1.135 1.135-104.566 0 0 13.567 21.809Zm-0.858-2.53a0.858 0.858 0 0 1 0.858-0.857h1.996a0.858 0.858 0 0 1 0.858 0.857V20.674a0.859 0.859 0 0 1-0.858 0.859H13.567a0.859 0.859 0 0 1-0.858-0.859Zm5.989 1.739h1.996a0.341 0.341 0 0 0 0.34-0.342V19.277a0.34 0.34 0 0 0-0.34-0.34h-1.996a0.34 0.34 0 0 0-0.34 0.34V20.674A0.341 0.341-104.566 0 0 18.697 21.016Zm-0.067-1.739a0.067 0.067 0 0 1 0.067-0.066h1.996a0.067 0.067 0 0 1 0.067 0.066V20.674a0.067 0.067 0 0 1-0.067 0.067h-1.996a0.067 0.067 0 0 1-0.067-0.067Zm0.067 2.53h1.996A1.135 1.135-104.566 0 0 21.826 20.674V19.277a1.132 1.132 0 0 0-1.132-1.13h-1.996a1.132 1.132 0 0 0-1.131 1.13V20.674A1.133 1.133-104.566 0 0 18.697 21.809Zm-0.857-2.53a0.857 0.857 0 0 1 0.857-0.857h1.996a0.857 0.857 0 0 1 0.857 0.857V20.674a0.859 0.859 0 0 1-0.857 0.859h-1.996a0.859 0.859 0 0 1-0.857-0.859ZM14.495 5.133a0.778 0.778 0 0 0 0.778-0.778v-2.786a0.778 0.778 0 1 0-1.556 0v2.786A0.778 0.778-104.566 0 0 14.495 5.133Zm-0.503-3.563a0.503 0.503 0 1 1 1.007 0v2.786a0.503 0.503 0 0 1-1.007 0Zm5.493 3.563a0.778 0.778 0 0 0 0.778-0.778v-2.786a0.778 0.778 0 1 0-1.555 0v2.786A0.778 0.778-104.566 0 0 19.483 5.133Zm-0.503-3.563a0.503 0.503 0 1 1 1.005 0v2.786a0.503 0.503 0 1 1-1.005 0Zm-18.136 20.344a1.297 1.297 0 0 0 1.296 1.296h19.719a1.297 1.297 0 0 0 1.296-1.296V7.983H0.844Zm0.274-13.656h21.764v13.656a1.022 1.022 0 0 1-1.022 1.022h-19.719a1.023 1.023 0 0 1-1.022-1.022ZM21.856 2.84h-1.082v1.516a1.294 1.294 0 1 1-2.589 0V2.84h-2.399v1.516a1.295 1.295 0 1 1-2.589 0V2.84h-2.4v1.516a1.294 1.294 0 1 1-2.589 0V2.84h-2.399v1.516a1.295 1.295 0 1 1-2.589 0V2.84H2.141a1.297 1.297 0 0 0-1.295 1.297V7.467h22.308V4.136A1.297 1.297-104.566 0 0 21.856 2.84Zm1.022 4.352H1.12V4.136A1.023 1.023-104.566 0 1 2.141 3.113h0.808v1.242a1.568 1.568 0 1 0 3.137 0V3.113h1.85v1.242a1.568 1.568 0 1 0 3.137 0V3.113h1.852v1.242a1.568 1.568 0 1 0 3.137 0V3.113h1.85v1.242a1.568 1.568 0 1 0 3.137 0V3.113h0.808a1.023 1.023 0 0 1 1.022 1.022Zm-1.017-5.144h-0.808v-0.479a1.569 1.569 0 0 0-3.138 0v0.479h-1.85v-0.479a1.569 1.569 0 0 0-3.138 0v0.479h-1.852v-0.479a1.568 1.568 0 1 0-3.137 0v0.479H6.087v-0.479a1.569 1.569 0 0 0-3.138 0v0.479h-0.808a2.091 2.091 0 0 0-2.089 2.087v17.777a2.092 2.092 0 0 0 2.089 2.087h19.719a2.09 2.09 0 0 0 2.089-2.087V4.136A2.09 2.09-104.566 0 0 21.86 2.049Zm1.813 19.865a1.816 1.816 0 0 1-1.814 1.813h-19.719a1.817 1.817 0 0 1-1.814-1.813V4.136a1.816 1.816 0 0 1 1.814-1.813h1.082V1.57a1.295 1.295 0 0 1 2.59 0V2.323H8.211V1.57a1.294 1.294 0 1 1 2.589 0V2.323h2.4V1.57a1.295 1.295 0 0 1 2.59 0V2.323h2.399V1.57a1.295 1.295 0 0 1 2.59 0V2.323h1.082a1.816 1.816 0 0 1 1.813 1.813Zm-14.169-16.78a0.778 0.778 0 0 0 0.778-0.778v-2.786a0.778 0.778 0 1 0-1.556 0v2.786A0.778 0.778-104.566 0 0 9.505 5.133Zm-0.503-3.563a0.503 0.503 0 1 1 1.007 0v2.786a0.503 0.503 0 1 1-1.007 0ZM4.516 5.133a0.778 0.778 0 0 0 0.778-0.778v-2.786a0.778 0.778 0 1 0-1.556 0v2.786A0.778 0.778-104.566 0 0 4.516 5.133Zm-0.503-3.563a0.503 0.503 0 1 1 1.005 0v2.786a0.503 0.503 0 0 1-1.005 0Z" />
</g>
<g class="root" id="care" data-name="care">
	<path d="M17.973 4.866A3.6 3.6 0.001 0 0 12 2.157A3.572 3.572 0.001 0 0 9.635 1.266A3.607 3.607 0.001 0 0 6.028 4.866c0 4.8 5.616 6.932 5.856 7.021l0.117 0a0.322 0.322 0 0 0 0.117 0C12.343 11.798 17.973 9.693 17.973 4.866ZM12 11.201C11.212 10.865 6.714 8.863 6.714 4.879A2.914 2.914 0.001 0 1 9.635 1.952V1.952a2.894 2.894 0 0 1 2.119 0.926l0 0a0.343 0.343 0 0 0 0.487 0h0a2.907 2.907 0 0 1 5.033 1.995c0 3.991-4.491 6.007-5.287 6.329Zm-1.234 4.8a0.446 0.446 0 0 1 0.055 0.192v6.171a0.343 0.343 0 0 1-0.343 0.343h0a0.343 0.343 0 0 1-0.343-0.343V16.303l-0.651-0.994a9.599 9.599 0 0 0-3.888-3.428A0.542 0.542 0.001 0 1 5.487 11.798L3.471 9.617a0.494 0.494 0 0 0-0.686 0.048H2.744a0.494 0.494 0 0 0 0 0.617c2.66 3.12 4.032 5.053 4.114 5.753a0.343 0.343 0 0 1-0.315 0.363h0A0.336 0.336 0.001 0 1 6.172 16.083H6.172c-0.034-0.377-1.077-2.009-3.929-5.355a1.179 1.179 0 0 1 0.069-1.598l-0.686-3.696a0.48 0.48 0 0 0-0.494-0.398A0.466 0.466 0.001 0 0 0.687 5.517l0.11 4.971L3.155 15.569l3.566 3.668a0.322 0.322 0 0 1 0.096 0.254l-0.144 2.914a0.35 0.35 0 0 1-0.343 0.329h0a0.35 0.35 0 0 1-0.329-0.343l0.137-2.743L2.62 16.001a0.261 0.261 0 0 1-0.062-0.089L0.159 10.714a0.336 0.336 0 0 1-0.034-0.137L0.001 5.531A1.152 1.152 0.001 0 1 1.126 4.345h0A1.152 1.152 0.001 0 1 2.298 5.325L2.936 8.808a1.2 1.2 0 0 1 1.063 0.363l1.947 2.153a10.354 10.354 0 0 1 4.114 3.627ZM24 5.531l-0.103 5.04a0.446 0.446 0 0 1-0.034 0.137l-2.4 5.197a0.487 0.487 0 0 1-0.069 0.096l-3.511 3.607l0.13 2.743a0.35 0.35 0 0 1-0.322 0.343l0 0a0.343 0.343 0 0 1-0.343-0.343l-0.144-2.914a0.322 0.322 0 0 1 0.096-0.254l3.572-3.655l2.359-5.074L23.314 5.517a0.459 0.459 0 0 0-0.459-0.473h0a0.466 0.466 0 0 0-0.466 0.384l-0.686 3.689a1.186 1.186 0 0 1 0.192 1.481l-0.103 0.144c-2.852 3.346-3.895 4.978-3.929 5.355a0.336 0.336 0 0 1-0.363 0.315h0a0.343 0.343 0 0 1-0.315-0.363h0c0.048-0.686 1.426-2.633 4.114-5.753a0.494 0.494 0 0 0-0.075-0.686h0a0.501 0.501 0 0 0-0.686 0.041L18.514 11.812a0.302 0.302 0 0 1-0.103 0.082a9.599 9.599 0 0 0-3.888 3.428L13.872 16.351V22.385a0.343 0.343 0 1 1-0.686 0v-6.171a0.418 0.418 0 0 1 0.055-0.185l0.686-1.083a10.381 10.381 0 0 1 4.114-3.634l1.961-2.139A1.193 1.193 0.001 0 1 21.058 8.808l0.651-3.497a1.152 1.152 0 0 1 1.337-0.933h0A1.138 1.138 0.001 0 1 24 5.531Z" />
</g>
<g class="root" id="check" data-name="check">
	<path d="M23.333 7.257l-12.778 12.778a2.291 2.291 0 0 1-3.208 0l-6.476-6.416a2.324 2.324 0 1 1 3.267-3.267l4.811 4.815l11.171-11.171a2.324 2.324 0 0 1 3.267 0a2.394 2.394 0 0 1-0.063 3.267h0" />
</g>
<g class="root" id="chess" data-name="chess">
	<path class="fill-secondary" d="M13.747 20.499V19.998a1.502 1.502 0 0 0-1.5-1.5h-0.035l-0.428-5.999h0.963a1.001 1.001 0 0 0 1-1V10.497a1.001 1.001 0 0 0-0.92-0.997l0.904-3.372l0.016-0.13a1.001 1.001 0 0 0-1-1h-1.999V4.497h1.5V1.497h-1.5V0H7.747v1.5H6.248V4.499h1.5v0.501H5.748A1.001 1.001-32.138 0 0 4.747 5.999l0.92 3.502A1.001 1.001-32.138 0 0 4.747 10.497v1a1.001 1.001 0 0 0 1 1H6.711l-0.428 5.999h-0.035a1.502 1.502 0 0 0-1.5 1.5v0.501a1.502 1.502 0 0 0-1.497 1.498v2.001H15.249v-1.999A1.502 1.502-32.138 0 0 13.747 20.499ZM7.25 3.499V2.498h1.5V0.999h1V2.498H11.252V3.499h-1.5v1.5H8.75V3.499ZM4.25 22.995v-1a0.501 0.501 0 0 1 0.501-0.501h4.999v-0.997H5.749V19.998a0.501 0.501 0 0 1 0.501-0.501h2.999v-1H7.286l0.428-5.999h1.034V11.5H5.749V10.497h2.999V9.497H6.705l-0.937-3.499h6.964l-0.937 3.499h-1.545V10.497h2.5v1h-2.5v1h0.535l0.428 5.999h-0.463v1h1.5a0.501 0.501 0 0 1 0.501 0.501v0.504h-1.5v1h2.498a0.501 0.501 0 0 1 0.501 0.501v0.997Zm16.499-0.497V24H16.249v-1h3.499v-0.501a0.501 0.501 0 0 0-0.501-0.501h-2V20.999H18.25v-2.5h-3.499v-1h4.499V16.499H13.249v-1H17.739a2.497 2.497 0 0 0-2.309-4.364l-0.327-0.947a3.499 3.499 0 0 1 4.016 5.308h0.128a1.001 1.001 0 0 1 1 1V17.495a1.001 1.001 0 0 1-0.999 1V20.995A1.502 1.502-32.138 0 1 20.749 22.499Z" />
</g>
<g class="root" id="close" data-name="close">
	<path d="M1.285 0.002A1.498 1.498 0.012 0 0 0.012 1.5a1.498 1.498 0 0 0 0.434 0.884L10.019 11.986L0.447 21.604a1.408 1.408 0 0 0 0 1.992a1.393 1.393 0 0 0 1.962 0L11.996 14.009l9.572 9.587a1.498 1.498 0 0 0 2.007 0a1.408 1.408 0 0 0 0-1.992L14.034 11.986l9.587-9.587A1.423 1.423 0.012 0 0 21.614 0.437L11.996 10.009L2.454 0.437A1.588 1.588 0.012 0 0 1.285 0.002Z" />
</g>
<g class="root" id="cta_star" data-name="cta-star">
	<path class="fill-secondary" d="M23.864 9.05a0.708 0.708 0 0 0-0.572-0.293h-0.002l-8.123 0.016l-2.498-7.733a0.706 0.706 0 0 0-1.343 0l-2.495 7.733l-8.123-0.016h-0.002a0.706 0.706 0 0 0-0.413 1.278l6.582 4.763l-2.527 7.724a0.706 0.706 0 0 0 0.452 0.89a0.709 0.709 0 0 0 0.636-0.101L11.999 18.523l6.567 4.79a0.699 0.699 0 0 0 0.414 0.134a0.738 0.738 0 0 0 0.111-0.009a0.706 0.706 0 0 0 0.561-0.916l-2.527-7.724L23.707 10.035a0.706 0.706 0 0 0 0.158-0.985Zm-0.355 0.713l-6.781 4.906l2.604 7.958a0.37 0.37 0 0 1-0.569 0.414L11.999 18.108l-6.761 4.934a0.369 0.369 0 0 1-0.547-0.131a0.366 0.366 0 0 1-0.022-0.282l2.604-7.958l-6.781-4.906a0.37 0.37 0 0 1 0.217-0.669h0l8.368 0.017l2.57-7.966a0.37 0.37 0 0 1 0.703 0l2.573 7.967l8.368-0.017h0a0.371 0.371 0 0 1 0.299 0.153a0.37 0.37 0 0 1-0.083 0.516Z" />
</g>
<g class="root" id="description" data-name="description">
	<path d="M0 20.71L0 3.29L24 3.29L24 20.71L0 20.71ZM22.065 5.221L1.935 5.221L1.935 18.779L22.065 18.779L22.065 5.221ZM13.553 16.835L3.875 16.835L3.875 14.903L13.553 14.903L13.553 16.835ZM3.875 11.028L20.126 11.028L20.126 12.971L3.875 12.971L3.875 11.028ZM3.875 7.165L20.126 7.165L20.126 9.097L3.875 9.097L3.875 7.165Z" />
</g>
<g class="root" id="edit" data-name="edit">
	<path d="M22.976 23.999L1.014 23.999C0.454 23.999-0.005 23.541-0.005 22.981L-0.005 1.019C-0.005 0.458 0.454-0.001 1.014-0.001L11.969-0.001C12.53-0.001 12.989 0.458 12.989 1.019C12.989 1.579 12.53 2.038 11.969 2.038L1.982 2.038L1.982 22.012L21.906 22.012L21.906 12.025C21.906 11.465 22.365 11.006 22.925 11.006C23.485 11.006 23.945 11.465 23.995 12.025L23.995 22.981C23.995 23.541 23.537 23.999 22.976 23.999ZM22.976 8.713C22.415 8.713 21.957 8.254 21.957 7.693L21.957 3.465L12.683 12.738C12.479 12.942 12.224 13.044 11.969 13.044C11.715 13.044 11.46 12.942 11.256 12.738C10.849 12.331 10.849 11.719 11.256 11.312L20.479 2.088L16.25 2.088C15.689 2.088 15.231 1.63 15.231 1.069C15.231 0.509 15.689 0.051 16.25 0.051L22.874 0.051C22.925 0.051 23.027 0.051 23.078 0.051C23.129 0.051 23.129 0.051 23.18 0.051C23.231 0.101 23.231 0.101 23.281 0.101C23.333 0.101 23.333 0.152 23.384 0.152C23.435 0.152 23.485 0.203 23.485 0.203C23.587 0.305 23.689 0.407 23.74 0.509C23.791 0.509 23.791 0.559 23.791 0.559C23.791 0.611 23.842 0.611 23.842 0.662C23.893 0.713 23.893 0.713 23.893 0.764C23.893 0.815 23.945 0.815 23.995 0.865C23.995 0.917 23.995 1.019 23.995 1.069L23.995 7.693C23.995 8.254 23.537 8.713 22.976 8.713Z" />
</g>
<g class="root" id="experience" data-name="experience">
	<path class="fill-light" d="M16.493 9.752v-2.267h-1.49V6.75h1.012l0.218-0.636c0.305-0.887 0.263-1.837-0.122-2.601c-0.093-0.185-0.203-0.361-0.329-0.526l-1.069-1.395l-0.033-0.036c-0.012-0.012-0.024-0.033-0.036-0.057h1.093V0H14.994v0.75H9.054h-0.054V0h-0.75v1.499h0.785C8.531 2.832 8.274 4.212 8.274 5.606v0.762v1.114h-0.774v2.267H1.501v4.563v9.688h20.999V14.312V9.752H16.493zM15.75 9.752h-0.006H8.251v-1.517h0.042c0.084 0.481 0.454 0.869 0.929 0.941c0.323 0.048 0.645-0.045 0.89-0.254c0.003-0.003 0.009-0.006 0.012-0.009c0.173 0.164 0.397 0.272 0.645 0.296c0.308 0.03 0.615-0.066 0.851-0.263c0.108 0.102 0.236 0.179 0.379 0.227c0.355 0.122 0.732 0.069 1.03-0.146c0.039-0.027 0.072-0.057 0.108-0.087c0.134 0.131 0.293 0.23 0.469 0.278c0.105 0.03 0.212 0.045 0.317 0.045c0.233 0 0.457-0.072 0.645-0.215c0.251-0.191 0.412-0.49 0.439-0.815h0.744V9.752z" />
	<path class="fill-white" d="M6.769 16.134h0.364v1.496h-0.744v-0.747h-0.75v0.747H4.87v-1.496h0.012H5.258H6.769zM9.397 6.003c-0.206 0-0.37 0.164-0.37 0.367v1.661c0 0.2 0.134 0.376 0.308 0.403c0.137 0.021 0.233-0.03 0.287-0.078c0.081-0.072 0.128-0.179 0.128-0.293v-0.487v-0.466h0.003v-0.738C9.753 6.165 9.597 6.003 9.397 6.003zM6.769 10.501H5.258v4.883h1.511V10.501zM5.258 21.931v1.32h1.511v-1.317c-0.221 0.128-0.478 0.203-0.753 0.203C5.739 22.137 5.482 22.062 5.258 21.931zM18.769 10.501h-1.511v4.883h1.511V10.501zM10.882 6c-0.206 0-0.382 0.17-0.382 0.37h0.003V7.108v0.466v0.478c0 0.209 0.149 0.388 0.337 0.406c0.111 0.012 0.227-0.027 0.311-0.102c0.039-0.033 0.102-0.108 0.102-0.212v-1.033v-0.741C11.252 6.165 11.085 6 10.882 6zM5.258 19.882v0.744c0 0.418 0.34 0.759 0.759 0.759c0.391 0 0.714-0.299 0.753-0.681v-0.818h0.003v-1.505H5.258V19.882zM12.002 7.111v0.466v0.499c0 0.179 0.099 0.337 0.239 0.385c0.17 0.057 0.293-0.006 0.352-0.048c0.099-0.072 0.158-0.185 0.158-0.305V6.75h-0.75V7.111zM18.769 16.134h-1.511h-0.376h-0.012h0v1.496h0.771v-0.747h0.75v0.747h0.744v-1.496H18.769zM17.258 21.931v1.32h1.511v-1.317c-0.221 0.128-0.478 0.203-0.753 0.203C17.739 22.137 17.482 22.062 17.258 21.931zM17.258 19.879v0.744c0 0.418 0.34 0.759 0.759 0.759c0.391 0 0.714-0.299 0.753-0.681v-0.818h0.003v-1.502v-0.003h-1.514V19.879zM13.501 8.055c0 0.176 0.155 0.4 0.308 0.442c0.116 0.033 0.221 0.018 0.305-0.045c0.09-0.069 0.143-0.185 0.143-0.314V6.75H13.501V8.055zM15.194 3.447l-1.057-1.38c-0.131-0.14-0.233-0.361-0.263-0.564H9.804v0.006c0 0.078-0.021 0.146-0.042 0.197c-0.454 1.171-0.699 2.38-0.738 3.611c0.113-0.042 0.236-0.063 0.364-0.063c0.281 0 0.538 0.108 0.735 0.284c0.2-0.176 0.463-0.284 0.753-0.284c0.618 0 1.12 0.502 1.12 1.12v0.006c0-0.49 0.188-0.932 0.493-1.266c-0.511-0.239-0.866-0.759-0.866-1.359h0.75c0 0.412 0.337 0.75 0.75 0.75h1.861v0.75h-1.108c-0.49 0-0.905 0.314-1.06 0.75h2.673l0.045-0.131c0.239-0.699 0.209-1.434-0.084-2.019C15.376 3.71 15.29 3.572 15.194 3.447z" />
	<path class="fill-btn" d="M2.254 16.271v0.003C2.254 16.274 2.251 16.271 2.254 16.271L2.254 16.271zM4.12 17.233c-0.738-0.081-1.395-0.436-1.867-0.959v6.974h2.255v-2.622v-0.744v-1.502h-0.388V17.233zM4.117 16.477v-1.093h0.388V10.501h-2.255h-0.003v3.811C2.248 15.411 3.063 16.322 4.117 16.477zM7.519 15.384h0.364v1.117h8.234v-1.117h0.388V10.501H7.519V15.384zM19.88 17.233v1.15h-0.358v2.246c0 0.036 0 0.072-0.003 0.108v2.515h2.231V16.271C21.278 16.797 20.621 17.152 19.88 17.233zM16.117 17.251H7.88v1.132h-0.358v2.246c0 0.036 0 0.072-0.003 0.108h-0.003v2.515h8.99v-2.622v-0.744v-1.502h-0.388V17.251zM19.88 16.477c1.057-0.155 1.87-1.066 1.87-2.165h-0.003V10.501h-2.231v4.883h0.364V16.477z" />
</g>
<g class="root" id="faith" data-name="faith">
	<path d="M22.201 21.098a0.492 0.492 0 0 0-0.097-0.199S20.819 19.285 20.003 18.027c-0.603-0.922-2.092-1.329-2.743-1.445a2.752 2.752 0 0 0-5.495 0c-0.718 0.173-2.136 0.598-2.77 1.4a22.236 22.236 0 0 0-1.879 2.987a0.443 0.443 0 0 0-0.044 0.12a2.659 2.659 0 0 0 0.567 2.118a1.874 1.874 0 0 0 1.449 0.78h5.672A0.505 0.505 1.764 0 0 15.262 23.486V22.994c0-1.272-1.329-1.773-1.821-1.968-0.412-0.155-1.174-0.368-1.728-0.518a0.501 0.501 0 0 0-0.886-0.479h0l-0.328 0.532a0.496 0.496 0 0 0-0.035 0.443a0.501 0.501 0 0 0 0.341 0.297s1.648 0.417 2.269 0.651c0.838 0.319 1.179 0.62 1.179 1.032H9.089A0.948 0.948 1.764 0 1 8.411 22.6a1.728 1.728 0 0 1-0.386-1.219A21.656 21.656 1.764 0 1 9.78 18.612c0.337-0.443 1.241-0.789 1.981-0.988v0.235a2.752 2.752 0 0 0 5.495 0v-0.253c0.705 0.164 1.604 0.501 1.905 0.97 0.736 1.126 1.773 2.468 2.078 2.845A1.773 1.773 1.764 0 1 20.845 22.6a0.931 0.931 0 0 1-0.665 0.399H16.259a0.501 0.501 0 0 0 0 1.001h3.922a1.874 1.874 0 0 0 1.449-0.78A2.659 2.659 1.764 0 0 22.201 21.098ZM16.259 17.858a1.773 1.773 0 0 1-3.496 0V16.635a1.773 1.773 0 0 1 3.496 0Zm-0.248 4.134a0.501 0.501 0 0 1-0.177-0.966h0a9.133 9.133 0 0 1 1.693-0.359a0.501 0.501 0 0 1 0.886-0.39h0l0.328 0.532a0.496 0.496 0 0 1 0.027 0.483a0.514 0.514 0 0 1-0.399 0.279a12.736 12.736 0 0 0-2.216 0.39a0.483 0.483 0 0 1-0.177 0.031ZM8.761 15.997a1.999 1.999 0 1 0-1.999 1.999A1.999 1.999 1.764 0 0 8.761 15.997Zm-1.999 1.001a1.001 1.001 0 1 1 1.001-1.001a1.006 1.006 0 0 1-1.001 1.001Zm0.12-7.329c0.554-0.638 1.626-1.064 2.88-1.152V6H8.761a0.501 0.501 0 0 1 0-1.001h1.001V3.988A0.501 0.501 1.764 1 1 10.76 3.988v0.997h1.001a0.501 0.501 0 1 1 0 1.001H10.76v2.517c1.254 0.089 2.331 0.514 2.88 1.157a0.501 0.501 0 0 1-0.053 0.705h0a0.523 0.523 0 0 1-0.328 0.12a0.496 0.496 0 0 1-0.377-0.173c-0.355-0.412-1.303-0.829-2.623-0.829s-2.264 0.417-2.619 0.824a0.496 0.496 0 0 1-0.705 0.053a0.505 0.505 0 0 1-0.053-0.705h0Zm0.381 3.346a3.013 3.013 0 0 0 1.773-0.558A4.086 4.086 1.764 0 0 14.938 11.965a4.254 4.254 0 0 0 0.82 0.084a3.944 3.944 0 0 0 3.988-3.869A3.886 3.886 1.764 0 0 17.274 4.609a3.948 3.948 0 0 0-3.988-3.647a4.126 4.126 0 0 0-1.547 0.301A4.081 4.081 1.764 0 0 8.761 0A3.988 3.988 1.764 0 0 4.866 2.982a3.908 3.908 0 0 0-3.102 3.767a3.886 3.886 0 0 0 2.508 3.585a2.96 2.96 0 0 0 2.991 2.681ZM2.761 6.749a2.92 2.92 0 0 1 2.601-2.836a0.496 0.496 0 0 0 0.443-0.443a2.96 2.96 0 0 1 2.969-2.486a3.035 3.035 0 0 1 2.419 1.179a0.501 0.501 0 0 0 0.634 0.137a3.102 3.102 0 0 1 1.445-0.355a2.934 2.934 0 0 1 3 2.863V4.874a0.315 0.315 0 0 0 0 0.066a0.492 0.492 0 0 0 0.363 0.501a2.898 2.898 0 0 1 2.14 2.747A2.934 2.934 1.764 0 1 15.758 11.078a3.022 3.022 0 0 1-0.886-0.129a0.496 0.496 0 0 0-0.558 0.208a3.018 3.018 0 0 1-2.552 1.365a3.062 3.062 0 0 1-2.318-1.05a0.487 0.487 0 0 0-0.359-0.173h0a0.505 0.505 0 0 0-0.355 0.146a2.021 2.021 0 0 1-1.449 0.594A1.954 1.954 1.764 0 1 5.265 10.126v0a0.536 0.536 0 0 0 0-0.102a0.496 0.496 0 0 0-0.363-0.51a2.894 2.894 0 0 1-2.145-2.747Z" />
</g>
<g class="root" id="faqs" data-name="faqs">
	<path d="M11.922 19.532a2.234 2.234 0 1 0 2.234 2.234A2.245 2.245 4.843 0 0 11.922 19.532Zm0 3.298a1.074 1.074 0 1 1 1.074-1.074a1.074 1.074 0 0 1-1.074 1.074ZM17.239 1.743A7.122 7.122 4.843 0 0 12.244 0.013a7.412 7.412 0 0 0-5.478 1.966A8.755 8.755 4.843 0 0 4.843 6.888a0.462 0.462 0 0 0 0 0.172v0.129a1.912 1.912 0 0 0 3.813 0.161V7.167a4.748 4.748 0 0 1 0.913-2.578a3.115 3.115 0 0 1 2.546-0.999a3.072 3.072 0 0 1 2.148 0.763a2.578 2.578 0 0 1 0.795 2.009a3.91 3.91 0 0 1-0.344 1.676A5.532 5.532 4.843 0 1 13.587 9.681L12.427 10.755a8.819 8.819 0 0 0-1.955 2.728a7.767 7.767 0 0 0-0.602 3.158c0 0.075 0 0.193 0 0.376V17.201a1.934 1.934 0 0 0 1.934 1.923a1.912 1.912 0 0 0 1.88-1.547l0 0V17.201a0.655 0.655 0 0 0 0-0.15V16.556a4.394 4.394 0 0 1 0.333-1.858A6.155 6.155 4.843 0 1 15.488 12.904l1.257-1.192a8.057 8.057 0 0 0 1.805-2.471a7.047 7.047 0 0 0 0.612-2.89A6.059 6.059 4.843 0 0 17.239 1.743Zm0.247 7.025a6.939 6.939 0 0 1-1.547 2.148L14.672 12.066a7.262 7.262 0 0 0-1.676 2.148a5.64 5.64 0 0 0-0.43 2.342c0 0.129 0 0.344 0 0.559V17.201a0.763 0.763 0 0 1-1.515 0V17.201l0-0.215c0-0.129 0-0.215 0-0.279A6.993 6.993 4.843 0 1 11.535 13.978a7.788 7.788 0 0 1 1.708-2.363L14.404 10.444a6.606 6.606 0 0 0 1.429-1.923a5.145 5.145 0 0 0 0.44-2.148A3.76 3.76 4.843 0 0 15.112 3.504a4.146 4.146 0 0 0-2.986-1.074a4.297 4.297 0 0 0-3.437 1.407a5.844 5.844 0 0 0-1.182 3.223l0 0.204a0.73 0.73 0 0 1-0.73 0.677a0.741 0.741 0 0 1-0.741-0.741V7.028A7.842 7.842 4.843 0 1 7.593 2.806A6.327 6.327 4.843 0 1 12.244 1.184A5.897 5.897 4.843 0 1 16.445 2.613a4.823 4.823 0 0 1 1.536 3.76a5.736 5.736 0 0 1-0.494 2.395Z" />
</g>
<g class="root" id="fax" data-name="fax">
	<path d="M24 20.688v1.478a0.368 0.368 0 0 1-0.363 0.363H17.447a0.368 0.368 0 0 1-0.363-0.363V20.688l0.167-1.534s-1.59-1.032-5.243-1.032-5.243 1.032-5.243 1.032l0.167 1.534v1.451a0.368 0.368 0 0 1-0.363 0.363H0.348A0.368 0.368-1.953 0 1 0 22.139V20.661a6.674 6.674 0 0 1 1.534-4.1C3.361 15.333 7.852 14.273 11.993 14.273s8.647 1.088 10.487 2.287A6.904 6.904-1.953 0 1 24 20.688ZM21.169 14.691A0.82 0.82-1.953 0 1 20.361 13.883v-4.184H14.559a0.82 0.82 0 0 1-0.809-0.809V3.089H3.626V13.883a0.809 0.809 0 1 1-1.618 0V2.28a0.82 0.82 0 0 1 0.809-0.809H14.559a0.162 0.162 0 0 1 0.098 0.031a0.694 0.694 0 0 1 0.474 0.207L21.755 8.318a0.757 0.757 0 0 1 0.21 0.477a0.173 0.173 0 0 1 0.028 0.095V13.883A0.82 0.82-1.953 0 1 21.169 14.691ZM19.187 8.053L15.368 4.233V8.053Z" />
</g>
<g class="root" id="featured" data-name="featured">
	<path class="fill-button" d="M-0.539 0V24L5 19.384L10.539 24V0Z" />
	<polygon points="6.819 16.855 5 15.853 3.181 16.855 3.583 14.843 2.06 13.444 4.123 13.2 5 11.34 5.877 13.2 7.945 13.449 6.417 14.843 6.819 16.855" class="fill-white" />
</g>
<g class="root" id="grace" data-name="grace">
	<path d="M22.37 11.384a2.961 2.961 0 0 0-1.503-0.031c-1.07 0.25-1.672 0.999-2.269 2.127l-1.694 0.892a2.109 2.109 0 0 0-1.454-0.508H12.485a3.161 3.161 0 0 1-0.446-0.312a2.528 2.528 0 0 0-1.445-0.691H8.049c-0.834 0-1.783 0.611-2.354 1.141l0 0C5.182 14.5 4.459 15.241 4.013 15.633l-0.624-0.624a0.504 0.504 0 0 0-0.713 0H2.676L0.148 17.523a0.504 0.504 0 0 0 0 0.713h0L5.681 23.77a0.504 0.504 0 0 0 0.713 0L8.918 21.255a0.504 0.504 0 0 0 0-0.709h0l-0.111-0.111a0.727 0.727 0 0 1 0.259-0.036h7.401c0.223 0 0.557 0 2.417-1.73 0.892-0.834 1.783-1.73 1.984-1.957A27.336 27.336 0.001 0 0 23.458 12.565a0.495 0.495 0 0 0-0.058-0.495A1.966 1.966 0.001 0 0 22.37 11.384ZM6.033 22.7L1.213 17.88l1.783-1.806L7.839 20.894ZM20.1 16.034c-0.575 0.647-3.121 3.121-3.696 3.353H9.052a1.605 1.605 0 0 0-0.999 0.303l-3.344-3.344c0.446-0.424 1.177-1.128 1.676-1.627a3.121 3.121 0 0 1 1.663-0.865h2.515A2.345 2.345 0.001 0 1 11.397 14.349a1.841 1.841 0 0 0 1.034 0.522h3.019c0.696 0 1.008 0.379 1.008 0.754s-0.312 0.754-1.008 0.754H10.924a0.508 0.508 0 0 0-0.504 0.504a0.499 0.499 0 0 0 0.504 0.504H15.45c1.338 0 2.011-0.892 2.011-1.761a1.583 1.583 0 0 0-0.045-0.383l1.783-0.927a0.508 0.508 0 0 0 0.214-0.218c0.589-1.141 1.025-1.601 1.681-1.752a1.819 1.819 0 0 1 1.28 0.138a29.204 29.204 0 0 1-2.274 3.567ZM2.676 18.232l0.713-0.713l1.003 1.008L3.666 19.253ZM23.85 2.422c-1.28 1.28-1.373 1.418-1.213 2.987 0.107 1.021-0.375 2.207-1.338 3.255a8.877 8.877 0 0 1-6.639 2.724a0.504 0.504 0 1 1 0-1.003c3.366 0 5.243-1.676 5.89-2.394 0.745-0.825 1.146-1.752 1.07-2.479-0.165-1.596-0.027-2.154 0.847-3.121A1.783 1.783 0.001 0 1 21.848 1.865a1.284 1.284 0 0 0-1.369-0.633c-0.415 0.062-0.95 0.263-1.427 1.289a4.352 4.352 0 0 1-1.917 1.926a0.504 0.504 0 0 1-0.504 0.861h0a52.322 52.322 0 0 1-7.58-3.933c-0.361 1.217-0.446 2.434 0.981 3.313l1.48 0.82a0.508 0.508 0 0 1 0.196 0.687h0a0.504 0.504 0 0 1-0.446 0.259a0.495 0.495 0 0 1-0.241-0.062l-1.115-0.62a0.838 0.838 0 0 0-0.107 0.517c0 0.058 0.045 0.245 0.357 0.392A0.504 0.504 0.001 0 1 10.421 7.215c-0.058 0.321 0 0.548 0.495 0.816A0.508 0.508 0.001 0 1 11.178 8.553a0.499 0.499 0 0 1-0.375 0.424A17.358 17.358 0.001 0 0 3.568 12.869a0.508 0.508 0 0 1-0.339 0.134a0.486 0.486 0 0 1-0.37-0.165A0.499 0.499 0.001 0 1 2.903 12.119h0a18.231 18.231 0 0 1 6.75-3.875l0 0a1.534 1.534 0 0 1-0.245-0.834a1.467 1.467 0 0 1-0.602-0.945a1.841 1.841 0 0 1 0.245-1.226c-1.873-1.494-1.141-3.661-0.816-4.624l0.058-0.183A0.499 0.499 0.001 0 1 8.606 0.108a0.513 0.513 0 0 1 0.446 0.062A44.408 44.408 0.001 0 0 15.793 3.84a3.286 3.286 0 0 0 2.341-1.743C18.647 0.973 19.365 0.375 20.328 0.237A2.256 2.256 0.001 0 1 22.633 1.24a0.892 0.892 0 0 0 0.861 0.325a0.513 0.513 0 0 1 0.468 0.312a0.499 0.499 0 0 1-0.107 0.544Z" />
</g>
<g class="root" id="handshake" data-name="handshake">
	<path class="cls-1" d="M23.999 9.278l-0.847-0.545c-1.594 2.476-3.323 4.241-3.752 4.115-0.993-0.877-2.804-2.728-4.12-4.08-0.459-0.474-0.852-0.872-1.115-1.135-0.63-0.63-1.896-0.358-3.243-0.071-0.469 0.101-0.918 0.197-1.306 0.247-0.625 0.081-1.261-0.262-1.619-0.575-0.247-0.222-0.353-0.414-0.378-0.504 0.64-0.499 4.645-1.821 5.26-1.821h0.005c0.131 0.035 0.55 0.202 0.953 0.368 1.563 0.635 2.335 0.903 2.764 0.842 0.156-0.025 0.338-0.05 2.264-1.78l-0.671-0.751c-0.686 0.615-1.523 1.331-1.8 1.528-0.398-0.05-1.584-0.535-2.174-0.772-0.565-0.232-0.898-0.363-1.089-0.408-0.524-0.121-4.317 0.963-5.82 1.826l-1.533-1.533l-0.711 0.711l1.558 1.558c-0.05 0.232-0.025 0.545 0.232 0.943 0.509 0.787 1.73 1.518 2.89 1.367 0.429-0.055 0.918-0.161 1.387-0.262 0.726-0.156 2.078-0.444 2.32-0.202 0.257 0.257 0.646 0.656 1.104 1.125 1.306 1.341 3.086 3.162 4.12 4.085 0.323 0.444 0.383 0.963 0.166 1.427-0.202 0.429-0.595 0.721-1.054 0.812l-3.212-3.328l-0.726 0.701l3.243 3.359c-0.05 0.177-0.212 0.464-0.514 0.681-0.252 0.182-0.651 0.343-1.13 0.141l-2.789-3.011l-0.741 0.686l2.587 2.794c-0.192 0.217-0.449 0.393-0.736 0.484-0.252 0.081-0.635 0.126-1.044-0.061l-1.563-1.584l-0.716 0.706l1.347 1.367c-0.287 0.378-0.62 0.62-0.928 0.661-0.292 0.035-0.595-0.101-0.908-0.414l-0.726-0.731l0.131-0.131c0.57-0.57 0.499-1.498-0.161-2.163-0.298-0.298-0.666-0.489-1.044-0.535-0.01 0-0.02 0-0.03 0-0.04-0.373-0.222-0.751-0.54-1.074-0.298-0.298-0.666-0.489-1.044-0.535-0.01 0-0.02 0-0.03 0-0.04-0.373-0.222-0.751-0.54-1.074-0.298-0.298-0.666-0.489-1.044-0.535-0.01 0-0.02 0-0.03 0-0.04-0.373-0.222-0.751-0.54-1.074-0.298-0.298-0.666-0.489-1.044-0.535-0.429-0.055-0.827 0.081-1.12 0.373l-0.035 0.035c-0.111-0.182-0.192-0.358-0.237-0.514-0.025-0.081-0.066-0.151-0.121-0.207l-1.079-1.115l-0.726 0.701l0.999 1.034c0.111 0.318 0.277 0.6 0.439 0.837l-0.131 0.131c-0.287 0.287-0.444 0.666-0.444 1.069s0.156 0.782 0.444 1.069l5.013 5.013c0.287 0.287 0.666 0.444 1.069 0.444s0.782-0.156 1.069-0.444l0.05-0.05l0.726 0.731c0.57 0.57 1.115 0.716 1.528 0.716 0.081 0 0.156-0.005 0.222-0.015 0.6-0.076 1.18-0.474 1.644-1.104 0.464 0.136 0.963 0.131 1.442-0.025 0.504-0.161 0.958-0.479 1.276-0.877 0.62 0.166 1.261 0.04 1.816-0.358 0.459-0.328 0.787-0.797 0.903-1.246 0.736-0.177 1.357-0.676 1.684-1.372 0.242-0.524 0.282-1.099 0.126-1.639 1.538-0.58 3.676-3.813 4.115-4.488ZM6.878 15.058c0.217 0.217 0.348 0.55 0.161 0.736 0 0 0 0 0 0.005h0s-1.225 1.266-1.225 1.266l-0.898-0.898l1.231-1.271s0 0 0 0c0.025-0.025 0.106-0.106 0.282-0.086 0.151 0.02 0.318 0.106 0.454 0.247Zm-1.609-1.609c0.217 0.217 0.348 0.55 0.161 0.736 0 0 0 0 0 0.005h0s-1.225 1.266-1.225 1.266l-0.898-0.898l1.231-1.271s0 0 0 0c0.025-0.025 0.106-0.106 0.282-0.086 0.151 0.02 0.318 0.106 0.454 0.247Zm-3.389-0.519c0-0.136 0.05-0.262 0.146-0.358l0.898-0.898s0.091-0.091 0.222-0.091c0.02 0 0.035 0 0.055 0 0.151 0.02 0.318 0.106 0.454 0.247 0.217 0.217 0.348 0.55 0.161 0.736 0 0 0 0 0 0.005h0s-1.225 1.266-1.225 1.266l-0.56-0.56c-0.096-0.096-0.146-0.222-0.146-0.358Zm5.159 5.366h0l-0.519-0.519l1.231-1.271s0 0 0 0c0.025-0.025 0.106-0.106 0.282-0.086 0.151 0.02 0.318 0.106 0.454 0.247 0.217 0.217 0.348 0.55 0.161 0.736l-0.898 0.898c-0.192 0.192-0.524 0.192-0.711 0Z" />
</g>
<g class="root" id="home" data-name="home">
	<path style="stroke-width: 2;" d="M23.871 13.328l-11.548-11.974a0.437 0.437 0 0 0-0.32-0.137h0a0.443 0.443 0 0 0-0.328 0.133l-11.548 11.98a0.448 0.448 0 0 0 0.008 0.635a0.472 0.472 0 0 0 0.328 0.121a0.448 0.448 0 0 0 0.312-0.136l1.501-1.557V22.331a0.456 0.456 0 0 0 0.456 0.449h6.332a0.448 0.448 0 0 0 0.448-0.449V15.363h4.968v6.969a0.456 0.456 0 0 0 0.456 0.449h6.332a0.456 0.456 0 0 0 0.456-0.449V12.39l1.493 1.553a0.464 0.464 0 0 0 0.32 0.139h0.008a0.445 0.445 0 0 0 0.328-0.755h0Zm-8.935 1.137h-5.871a0.448 0.448 0 0 0-0.448 0.448v6.972h-5.439V11.452l8.816-9.151l8.824 9.151V21.883h-5.439v-6.972a0.448 0.448 0 0 0-0.448-0.448h0Z" />
</g>
<g class="root" id="honors" data-name="honors">
	<path class="fill-white" d="M19.333 3.361v0.587h-0.003h-2.743v18.624H3.157v-0.432h-1.228c-0.766 0-1.389-0.623-1.389-1.389v-0.587h2.618V3.11c0-0.766 0.623-1.389 1.389-1.389h12.043v0.25h1.354C18.71 1.971 19.333 2.594 19.333 3.361z" />
	<path class="fill-light"  d="M4.902 11.999h9.923v0.704H4.902V11.999zM4.902 14.098h9.923v-0.704H4.902V14.098zM4.902 15.508h9.923v-0.704H4.902V15.508zM4.902 7.052h9.923v-0.704H4.902V7.052zM24 11.999v10.57H16.909v0.003h-0.704v-0.003h-2.943h-0.584H1.762h-0.149v-0.006c-0.9-0.078-1.613-0.835-1.613-1.756V19.748h2.818V3.191c0-0.972 0.79-1.762 1.762-1.762h13.388c0.972 0 1.762 0.79 1.762 1.762v1.061l-2.818 0.006v7.741h0.748h0.704H23.976H24zM2.814 20.455h-2.111v0.352c0 0.581 0.474 1.056 1.056 1.056s1.056-0.474 1.056-1.056V20.455zM11.13 21.862l-0.886-0.668l-0.874 0.668H11.13zM16.205 4.258l-10.57 0.018v-1.088c0-0.581-0.474-1.056-1.056-1.056s-1.056 0.474-1.056 1.056v17.616c0 0.397-0.131 0.763-0.355 1.056h5.287V17.998v-0.021v-0.024c0-0.96 0.781-1.738 1.738-1.738h0.045c0.96 0 1.738 0.781 1.738 1.738v0.045c0 0.012 0 0.021 0 0.033v3.832h0.701h0.406h3.122V4.258zM19.023 3.549v-0.358c0-0.581-0.474-1.056-1.056-1.056H5.987c0.221 0.295 0.355 0.662 0.355 1.056v0.382L19.023 3.549zM18.355 14.766h0.03h3.524v-0.704h-3.524h-0.03V14.766zM20.69 17.587l-0.277-0.483l-0.081-0.14l-0.197-0.343l-0.28 0.483l-0.28 0.483h0.558h0.033l0.167 0.286l0.179 0.307l-0.179 0.307l-0.167 0.286l0.167 0.286l0.098 0.167l0.23-0.397l0.379-0.656L20.69 17.587zM19.05 19.408l0.343-0.596h0.689l0.247-0.429l0.015-0.027h-0.015h-0.441h-0.757l-0.343 0.596l-0.28 0.483l-0.28 0.483h0.558h0.558l-0.28-0.483L19.05 19.408zM22.038 19.918l-0.28-0.483l-0.28-0.483l-0.28 0.483l-0.015 0.027h-0.689l-0.167-0.286l-0.179-0.307H19.622l0.23 0.397l0.379 0.656h0.098h0.59h0.558h0.561V19.918zM4.902 9.885h9.923v-0.704H4.902V9.885zM4.902 8.459h9.923v-0.704H4.902V8.459zM4.902 11.295h9.193v-0.003h0.731v-0.701H4.902V11.295z" />
	<path class="fill-btn" d="M10.239 19.739c0.388 0 0.745-0.128 1.035-0.343V21.09l-1.032-0.781l-1.082 0.829v-1.741c0.289 0.215 0.647 0.343 1.035 0.343L10.239 19.739L10.239 19.739zM10.239 16.919h-0.045c-0.57 0-1.035 0.465-1.035 1.035v0.024v0.021c0 0.57 0.465 1.035 1.035 1.035h0.045c0.567 0 1.026-0.456 1.035-1.02v-0.039v-0.024C11.274 17.384 10.808 16.919 10.239 16.919zM23.296 12.702v9.16h-5.287h-1.085v-0.051V12.702h0.734h0.704H23.296zM19.05 19.408l0.343-0.596h0.689l0.247-0.429l0.015-0.027h-0.015h-0.441h-0.757l-0.343 0.596l-0.28 0.483l-0.28 0.483h0.558h0.558l-0.28-0.483L19.05 19.408zM20.132 17.587h0.033l0.167 0.286l0.179 0.307l-0.179 0.307l-0.167 0.286l0.167 0.286l0.098 0.167l0.23-0.397l0.379-0.656l-0.349-0.587l-0.277-0.483l-0.081-0.14l-0.197-0.343l-0.28 0.483l-0.28 0.483H20.132zM22.038 19.918l-0.28-0.483l-0.28-0.483l-0.28 0.483l-0.015 0.027h-0.689l-0.167-0.286l-0.179-0.307H19.622l0.23 0.397l0.379 0.656h0.098h0.59h0.558h0.561V19.918zM22.592 13.409h-4.228h-0.704h-0.03v2.114h0.03h0.704h4.228V13.409z" />
</g>
<g class="root" id="info" data-name="info">
	<path d="M11.997 0A12 12-23.343 1 0 24 12A12 12-23.343 0 0 11.997 0Zm0 22.908a10.91 10.91 0 1 1 10.91-10.91A10.91 10.91-23.343 0 1 11.997 22.909ZM14.179 8.728H8.725v2.575l1.637 0.545v4.122l-1.637 0.545v2.575H15.815V16.517L14.179 15.971Zm0.545 8.574v0.698H9.816V17.303l1.637-0.545V11.062l-1.637-0.545V9.819h3.272V16.755ZM11.997 8.183a2.182 2.182 0 1 0-2.182-2.182h0A2.184 2.184-23.343 0 0 11.997 8.183Zm0-3.272a1.091 1.091 0 1 1-1.091 1.091A1.091 1.091-23.343 0 1 11.997 4.91Z" />
</g>
<g class="root" id="insurances" data-name="insurances">
	<path d="M8.888 18.673a0.426 0.426 0 0 1 0.426 0.426a0.426 0.426 0 0 1-0.426 0.426H6.852a0.426 0.426 0 0 1-0.426-0.426a0.426 0.426 0 0 1 0.426-0.426h2.036ZM2.47 9.902V5.017a0.426 0.426 0 0 1 0.426-0.426h4.885a0.426 0.426 0 0 1 0.426 0.426h0v4.885a0.426 0.426 0 0 1-0.426 0.426H2.896a0.426 0.426 0 0 1-0.426-0.426h0Zm2.865-3.097a0.495 0.495 0 0 0-0.495 0.495a0.495 0.495 0 0 0 0.991 0a0.503 0.503 0 0 0-0.495-0.503ZM4.181 9.476h2.323a1.223 1.223 0 0 0-2.323 0ZM6.418 8.121A2.052 2.052 0 0 1 7.347 9.383V5.442H3.314V9.383A2.09 2.09 0 0 1 4.251 8.121a1.347 1.347 0 1 1 2.168 0ZM22.158 8.764H21.322a0.41 0.41 0 0 0-0.426 0.418a0.418 0.418 0 0 0 0.426 0.426h0.836a0.975 0.975 0 0 1 0.96 0.975V20.377a0.975 0.975 0 0 1-0.96 0.975H5.513A0.975 0.975 0 0 1 4.553 20.377v-4.258A0.426 0.426 0 0 0 4.127 15.731a0.426 0.426 0 0 0-0.426 0.426V20.377a1.819 1.819 0 0 0 1.812 1.827h16.645A1.827 1.827 0 0 0 24 20.377V10.614A1.827 1.827 0 0 0 22.158 8.764ZM12.519 11.311H2.896a0.418 0.418 0 0 0-0.426 0.418h0a0.426 0.426 0 0 0 0.426 0.426H12.519a0.426 0.426 0 0 0 0.426-0.426h0a0.426 0.426 0 0 0-0.426-0.434h0Zm5.721 7.788a0.426 0.426 0 0 0 0.426 0.426h2.036a0.426 0.426 0 0 0 0.426-0.426a0.426 0.426 0 0 0-0.426-0.426H18.666a0.426 0.426 0 0 0-0.426 0.418Zm0.217-3.871H1.812A1.827 1.827 0 0 1 0 13.409V3.623A1.819 1.819 0 0 1 1.812 1.796h16.645a1.819 1.819 0 0 1 1.812 1.819V13.409a1.819 1.819 0 0 1-1.812 1.819Zm0-12.588H1.812A0.983 0.983 0 0 0 0.844 3.623V13.409a0.968 0.968 0 0 0 0.968 0.968h16.645A0.96 0.96 0 0 0 19.417 13.409V3.623A0.975 0.975 0 0 0 18.457 2.648ZM17.288 11.311H14.486a0.426 0.426 0 0 0-0.426 0.426h0a0.426 0.426 0 0 0 0.426 0.426h2.803a0.426 0.426 0 0 0 0.426-0.426h0a0.434 0.434 0 0 0-0.426-0.434ZM14.71 18.673a0.426 0.426 0 0 0-0.434 0.426h0a0.434 0.434 0 0 0 0.434 0.426h2.028a0.426 0.426 0 0 0 0.426-0.426a0.418 0.418 0 0 0-0.426-0.426H14.71Zm2.555-12.813H16.444V5.017a0.426 0.426 0 0 0-0.426-0.426a0.418 0.418 0 0 0-0.426 0.426h0V5.86H14.749a0.418 0.418 0 0 0-0.426 0.426h0a0.426 0.426 0 0 0 0.426 0.426h0.844V7.556a0.426 0.426 0 0 0 0.426 0.426h0a0.434 0.434 0 0 0 0.426-0.426V6.712h0.844a0.434 0.434 0 0 0 0-0.859ZM10.793 18.673a0.418 0.418 0 0 0-0.426 0.426a0.426 0.426 0 0 0 0.426 0.426h2.028a0.426 0.426 0 0 0 0.426-0.426a0.418 0.418 0 0 0-0.426-0.426Z" />
</g>
<g class="root" id="laptop_user" data-name="laptop-user">
	<path class="cls-1" d="M22.178 16.758l-3 5c-0.091 0.151-0.253 0.242-0.429 0.242h-4c-0.276 0-0.5-0.224-0.5-0.5s0.224-0.5 0.5-0.5h3.717l2.4-4h-7.834l-1.678 2.797c-0.142 0.237-0.449 0.314-0.686 0.171-0.237-0.142-0.314-0.449-0.171-0.686l1.824-3.039c0.091-0.151 0.253-0.242 0.429-0.242h9c0.18 0 0.346 0.097 0.435 0.254 0.089 0.157 0.086 0.349-0.006 0.504Zm-0.929 6.242H12.822c0.303-0.501 0.414-1.085 0.418-1.496 0.001-0.133-0.051-0.262-0.145-0.356-0.094-0.095-0.222-0.148-0.355-0.148h-2.749l-2.241-2.997c-0.469-0.628-1.218-1.003-2.002-1.003h-0.498c-1.268 0-2.104 0.802-2.485 2.379L1.764 23.379c-0.067 0.268 0.096 0.539 0.364 0.606 0.041 0.01 0.081 0.015 0.122 0.015 0.224 0 0.428-0.152 0.485-0.379l1.001-4.004c0.346-1.434 0.991-1.618 1.514-1.618h0.498c0.471 0 0.919 0.225 1.201 0.602l2.391 3.198c0.094 0.126 0.242 0.201 0.401 0.201h2.427c-0.115 0.438-0.409 1-1.168 1h-2.543l-2.354-2.354c-0.195-0.195-0.512-0.195-0.707 0-0.195 0.195-0.195 0.512 0 0.707l1.646 1.646h-0.793c-0.276 0-0.5 0.224-0.5 0.5s0.224 0.5 0.5 0.5h15c0.276 0 0.5-0.224 0.5-0.5s-0.224-0.5-0.5-0.5ZM5.499 9c0.276 0 0.5-0.224 0.5-0.5V1.499c0-0.275 0.224-0.499 0.499-0.499h13.502c0.275 0 0.499 0.224 0.499 0.499V10c0 0.276-0.224 0.5-0.5 0.5h-4.5c-0.144 0-0.281 0.062-0.376 0.171l-2.624 2.999v-2.669c0-0.276-0.224-0.5-0.5-0.5h-1.5c-0.276 0-0.5 0.224-0.5 0.5s0.224 0.5 0.5 0.5h1v2.835c0 0.316 0.191 0.591 0.486 0.702 0.088 0.033 0.178 0.049 0.267 0.049 0.211 0 0.416-0.09 0.562-0.257l2.912-3.329h4.273c0.827 0 1.5-0.673 1.5-1.5V1.499c0-0.826-0.672-1.499-1.499-1.499H6.498c-0.826 0-1.499 0.672-1.499 1.499v7.001c0 0.276 0.224 0.5 0.5 0.5Zm-0.001 7.5l0.826 0.001c1.22 0 2.175-0.972 2.175-2.214v-0.62c0-0.276-0.224-0.5-0.5-0.5s-0.5 0.224-0.5 0.5v0.62c0 0.692-0.505 1.214-1.174 1.214h-0.326v-1.708c0.762-0.308 1.385-0.896 1.669-1.311 0.156-0.228 0.097-0.539-0.131-0.695-0.228-0.156-0.539-0.097-0.695 0.131-0.249 0.366-1.071 1.082-1.842 1.082-0.276 0-0.5 0.224-0.5 0.5s0.224 0.5 0.5 0.5v2c0 0.276 0.224 0.499 0.499 0.5Zm-2.499 0.5c0.128 0 0.256-0.049 0.354-0.146 0.016-0.016 0.034-0.033 0.051-0.05 0.222-0.217 0.596-0.579 0.596-1.303v-2.933c0-1.139 1.009-2.067 2.25-2.067s2.25 0.806 2.25 1.5c0 0.276 0.224 0.5 0.5 0.5s0.5-0.224 0.5-0.5c0-1.332-1.519-2.5-3.25-2.5s-3.25 1.376-3.25 3.067v2.933c0 0.302-0.116 0.415-0.293 0.587-0.021 0.02-0.041 0.04-0.061 0.059-0.195 0.195-0.196 0.512 0 0.707 0.098 0.098 0.226 0.146 0.354 0.146ZM10.5 6.5h0.5c0.276 0 0.5-0.224 0.5-0.5s-0.224-0.5-0.5-0.5h-0.5c-0.276 0-0.5 0.224-0.5 0.5s0.224 0.5 0.5 0.5Zm3 0c0.276 0 0.5-0.224 0.5-0.5s-0.224-0.5-0.5-0.5h-0.5c-0.276 0-0.5 0.224-0.5 0.5s0.224 0.5 0.5 0.5h0.5Zm2 0h0.5c0.276 0 0.5-0.224 0.5-0.5s-0.224-0.5-0.5-0.5h-0.5c-0.276 0-0.5 0.224-0.5 0.5s0.224 0.5 0.5 0.5Z" />
</g>
<g class="root" id="locations" data-name="locations">
	<path d="M14.985 6.512a2.983 2.983 0 1 0-2.983 2.983a2.987 2.987 0 0 0 2.983-2.983zm-5.26 0a2.276 2.276 0 1 1 2.276 2.277a2.279 2.279 0 0 1-2.276-2.277z" />
	<path d="M23.979 23.48l-2.88-7.55a0.353 0.353 0 0 0-0.33-0.227h-5.451c0.033-0.054 0.066-0.107 0.1-0.161 2.097-3.472 3.153-6.51 3.137-9.026a6.554 6.554 0 0 0-13.108-0.002c-0.015 2.519 1.04 5.557 3.137 9.029 0.033 0.055 0.066 0.108 0.1 0.161h-5.451a0.353 0.353 0 0 0-0.33 0.227l-2.879 7.55a0.353 0.353 0 0 0 0.33 0.479h23.294a0.353 0.353 0 0 0 0.33-0.479zm-17.825-16.968a5.847 5.847 0 1 1 11.694 0.002c0.03 5.018-4.661 11.207-5.847 12.692-1.186-1.484-5.877-7.671-5.847-12.694zm5.578 13.482a0.353 0.353 0 0 0 0.538 0a37.493 37.493 0 0 0 2.604-3.585h5.65l0.452 1.186l-11.041 3.927l-3.935-5.113h3.127a37.493 37.493 0 0 0 2.605 3.586zm-1.809 2.281h0.002l6.586-2.342l2.555 3.319h-11.89zm-6.446-5.867h1.631l4.127 5.362l-4.167 1.482h-4.201zm16.482 6.844l-2.747-3.569l4.017-1.429l1.906 4.998z" />
</g>
<g class="root" id="mail" data-name="mail">
	<path d="M0 3.004L24 3.004L24 20.996L0 20.996L0 3.004ZM20.041 5.253L3.958 5.253L11.999 11.699L20.041 5.253ZM2.181 6.677L2.181 18.747L21.817 18.747L21.817 6.677L11.999 14.549L2.181 6.677Z" />
</g>
<g class="root" id="media" data-name="media">
	<path d="M15.117 11.65l-4.552-2.897c-0.127-0.081-0.289-0.086-0.422-0.014C10.012 8.813 9.93 8.952 9.93 9.103v5.793c0 0.151 0.082 0.29 0.215 0.363C10.207 15.292 10.275 15.309 10.344 15.309c0.077 0 0.155-0.022 0.222-0.065l4.552-2.897C15.236 12.272 15.308 12.14 15.308 12S15.236 11.726 15.117 11.65zM10.758 14.142V9.856L14.124 12L10.758 14.142z" />
	<path d="M23.584 2.482H19.446H4.551H0.413C0.184 2.482-0.001 2.667-0.001 2.896v4.552v4.552v4.552v4.552c0 0.229 0.185 0.414 0.414 0.414h4.138h14.896h4.138c0.228 0 0.414-0.185 0.414-0.414V16.55V12V7.448V2.896C23.998 2.667 23.813 2.482 23.584 2.482zM4.137 11.586H0.827v-3.724h3.31V11.586zM0.827 12.412h3.31v3.724H0.827V12.412zM4.965 16.55V12V7.448V3.31h14.068v4.138v4.552v4.552v4.138H4.965V16.55zM23.17 11.586h-3.31v-3.724h3.31V11.586zM19.86 12.412h3.31v3.724h-3.31V12.412zM23.17 3.31v3.724h-3.31V3.31H23.17zM0.827 3.31h3.31v3.724H0.827V3.31zM0.827 20.688v-3.724h3.31v3.724H0.827zM23.17 20.688h-3.31v-3.724h3.31V20.688z" />
</g>
<g class="root" id="menu_btn" data-name="menu btn">
	<path class="fill-white" d="M0 2.634v2.927H24v-2.927Zm0 7.902v2.927H24V10.537Zm0 7.902v2.927H24v-2.927Z" />
</g>
<g class="root" id="mindfullness" data-name="mindfullness">
	<path d="M7.286 15.336a2.943 2.943 0 0 1-0.643-1.73V5.686A1.571 1.571 0 0 1 8.215 4.155h0.453V3.643a1.576 1.576 0 0 1 1.571-1.535h0.453A1.54 1.54 0 0 1 12.272 0.578h0a1.503 1.503 0 0 1 1.512 1.499v0.032h0.552A1.494 1.494 0 0 1 15.849 3.607V8.638c0.584-0.833 1.358-1.698 2.355-1.762a1.811 1.811 0 0 1 1.512 0.589a0.906 0.906 0 0 1 0.104 0.851a22.085 22.085 0 0 1-1.028 2.169a10.297 10.297 0 0 0-0.869 1.983A4.891 4.891 0 0 1 15.849 15.163v3.297a0.512 0.512 0 0 1-1.023 0V15.657a7.485 7.485 0 0 1-0.937 0.24a0.512 0.512 0 1 1-0.168-1.01h0a4.981 4.981 0 0 0 1.358-0.453a4.03 4.03 0 0 0 1.861-2.264a11.162 11.162 0 0 1 0.946-2.174a21.65 21.65 0 0 0 0.946-1.992a1.155 1.155 0 0 0-0.566-0.127c-0.783 0.05-1.567 1.277-2.033 2.015a3.5 3.5 0 0 1-0.571 0.77l-0.041 0.027l0 0l-0.032 0l0 0l-0.027 0h0l-0.027 0l-0.027 0h-0.122c-0.086 0-2.16 0.032-2.568 1.657A0.512 0.512 0 1 1 11.774 12.202c0.408-1.639 1.965-2.264 3.048-2.391V3.643a0.475 0.475 0 0 0-0.453-0.512H13.794V8.24a0.512 0.512 0 0 1-1.023 0V2.62h0V2.113a0.494 0.494 0 0 0-0.48-0.512h0A0.521 0.521 0 0 0 11.774 2.113V8.24a0.512 0.512 0 0 1-1.023 0V3.132h-0.453a0.548 0.548 0 0 0-0.552 0.512V8.751a0.512 0.512 0 0 1-1.019 0v-3.577h-0.453a0.548 0.548 0 0 0-0.552 0.512V13.601a2.024 2.024 0 0 0 0.453 1.159a2.482 2.482 0 0 1 0.552 1.395v2.042a0.512 0.512 0 1 1-1.023 0V16.155A1.553 1.553 0 0 0 7.286 15.336Zm12.127 3.623c0-0.752-0.693-1.358-2.06-1.811a0.512 0.512 0 1 0-0.326 0.969c1.118 0.376 1.358 0.747 1.358 0.86s-0.453 0.598-1.653 0.955a19.68 19.68 0 0 1-9.464 0c-1.209-0.358-1.657-0.779-1.657-0.955s0.195-0.389 0.906-0.697A0.512 0.512 0 1 0 6.141 17.333h0c-1.023 0.453-1.544 0.987-1.544 1.639 0 1.014 1.295 1.612 2.382 1.934a20.708 20.708 0 0 0 10.044 0c1.091-0.322 2.391-0.906 2.391-1.934ZM8.953 22.404c-5.153-0.48-7.934-1.997-7.934-3.17 0-0.475 0.453-0.996 1.291-1.476A13.386 13.386 0 0 1 6.222 16.427a0.512 0.512 0 0 0-0.199-1.001C2.192 16.191 0 17.573 0 19.225c0 2.047 3.478 3.695 8.857 4.198h0.045a0.512 0.512 0 0 0 0.512-0.512a0.516 0.516 0 0 0-0.453-0.507ZM17.258 15.295a0.512 0.512 0 0 0-0.172 1.005h0c3.473 0.584 5.887 1.784 5.887 2.921 0 0.942-1.716 1.965-4.365 2.608a0.512 0.512 0 1 0 0.24 0.992C22.189 22.019 24 20.742 24 19.221c0-1.748-2.518-3.215-6.747-3.926Z" />
</g>
<g class="root" id="nav_arrow" data-name="nav arrow">
	<path d="M6.55 24l-1.085-1.085l10.853-10.853l-10.853-10.853L6.55 0L17.977 11.457l0.558 0.543l-0.558 0.558Z" />
</g>
<g class="root" id="page" data-name="page">
	<path d="M20.86 2.765H4.895a0.554 0.554 0 0 0-0.617 0.554l-0.12 14.53H0.679A0.802 0.802-6.119 0 0 0 18.585V19.605a4.188 4.188 0 0 0 4 4.095H17.477A4.065 4.065-6.119 0 0 21.537 19.605V3.381a0.678 0.678 0 0 0-0.677-0.617ZM1.234 19.605v-0.523h11.999V19.605a3.974 3.974 0 0 0 1.231 2.863H4.157A2.925 2.925-6.119 0 1 1.234 19.605Zm19.075 0a2.923 2.923 0 1 1-5.846 0V18.585c0-0.338-0.216-0.739-0.554-0.739H5.388l0.12-13.853H20.307ZM7.477 8.306h4.768a0.616 0.616 0 0 0 0-1.231H7.477a0.616 0.616 0 0 0 0 1.231Zm0 3.386H17.17a0.616 0.616 0 0 0 0-1.231H7.477a0.616 0.616 0 0 0 0 1.231Zm0 3.693H17.17a0.614 0.614 0 0 0 0-1.231H7.477a0.614 0.614 0 0 0 0 1.231Zm15.843-15.084H7.355a0.616 0.616 0 1 0 0 1.231H22.768V17.142a0.616 0.616 0 1 0 1.231 0V0.918a0.678 0.678 0 0 0-0.677-0.617Z" />
</g>
<g class="root" id="patience" data-name="patience">
	<path d="M23.366 15.806a2.216 2.216 0 0 0-1.689-0.798h-0.62A2.965 2.965 0.177 0 0 21.176 14.192V13.346A2.752 2.752 0.177 0 0 15.689 13.177V14.192a2.907 2.907 0 0 0 0.137 0.886c-1.214 0.191-1.884 0.838-2.216 2.114l-1.073 3.355a2.017 2.017 0 0 0 0.288 1.773a1.693 1.693 0 0 0 1.374 0.709V23.5a0.501 0.501 0 0 0 1.002 0V23.003H16.177a2.216 2.216 0 0 0 1.143-0.284l0.771-0.417l1.197 0.634l0.053 0.022a2.216 2.216 0 0 0 0.802 0.16a1.822 1.822 0 0 0 0.532-0.08v0.443a0.492 0.492 0 0 0 0.492 0.505A0.501 0.501 0.177 0 0 21.673 23.5V22.4l0 0l0.771-0.807c0.155-0.164 0.394-0.501 0.722-1.596 0.168-0.563 0.488-1.857 0.612-2.477A2.043 2.043 0.177 0 0 23.366 15.806ZM16.678 13.341a1.773 1.773 0 0 1 3.501-0.137V14.192a1.773 1.773 0 0 1-3.501 0.137a0.709 0.709 0 0 1 0-0.137Zm6.129 3.989c-0.115 0.585-0.443 1.853-0.585 2.38a3.435 3.435 0 0 1-0.492 1.192l-0.771 0.807a1.033 1.033 0 0 1-1.228 0.337l-2.367-1.245c-0.576-0.301-0.687-0.394-0.687-0.789H19.678a0.501 0.501 0 0 0 0.474-0.341l0.328-1.002a0.501 0.501 0 0 0-0.953-0.31l-0.213 0.656H16.487l-0.27-0.541a0.505 0.505 0 0 0-0.674-0.222a0.501 0.501 0 0 0-0.222 0.669l0.355 0.709v0.381c0 1.033 0.651 1.374 1.223 1.675L17.019 21.727l-0.173 0.089a1.179 1.179 0 0 1-0.678 0.173H14.178A0.678 0.678 0.177 0 1 13.611 21.727A0.997 0.997 0.177 0 1 13.473 20.84l1.077-3.364a0.191 0.191 0 0 1 0 0c0.275-1.015 0.705-1.374 1.773-1.436a2.721 2.721 0 0 0 3.838 0.363a2.992 2.992 0 0 0 0.377-0.372H21.673a1.205 1.205 0 0 1 0.917 0.443A1.024 1.024 0.177 0 1 22.807 17.321Zm-13.136 0.186A1.999 1.999 0.177 1 0 11.674 19.511a1.999 1.999 0 0 0-2.003-1.999Zm0 2.996A1.002 1.002 0.177 1 1 10.672 19.511h0a1.002 1.002 0 0 1-1.002 0.997Zm0.031-3.989A4.689 4.689 0.177 0 1 5.939 14.605A4.724 4.724 0.177 0 1 0.177 10.044a4.592 4.592 0 0 1 0.957-2.823A4.773 4.773 0.177 0 1 3.191 5.687a4.919 4.919 0 0 1 1.449-3.191A5.07 5.07 0.177 0 1 9.777 1.504A4.286 4.286 0.177 0 1 11.257 0.387A4.224 4.224 0.177 0 1 13.314 0.01A4.716 4.716 0.177 0 1 17.905 3.693a4.698 4.698 0 0 1 3.723 4.565a4.636 4.636 0 0 1-0.301 1.644a0.501 0.501 0 0 1-0.935-0.355A3.661 3.661 0.177 0 0 17.418 4.624a0.501 0.501 0 0 1-0.443-0.443a3.718 3.718 0 0 0-6.648-1.68A0.496 0.496 0.177 0 1 9.684 2.669a3.749 3.749 0 0 0-1.773-0.443a3.692 3.692 0 0 0-3.71 3.67a0.443 0.443 0 0 0 0 0.075a0.51 0.51 0 0 0 0 0.08a0.505 0.505 0 0 1-0.359 0.501a3.665 3.665 0 0 0 1.05 7.193a3.807 3.807 0 0 0 1.095-0.164a0.505 0.505 0 0 1 0.572 0.213A3.727 3.727 0.177 0 0 12.587 14.192a0.505 0.505 0 0 1 0.705-0.062a0.266 0.266 0 0 1 0.035 0.035a2.588 2.588 0 0 0 0.519 0.412a0.501 0.501 0 0 1-0.519 0.855c-0.111-0.071-0.222-0.142-0.324-0.222A4.724 4.724 0.177 0 1 9.702 16.506ZM15.322 6.862a0.501 0.501 0 0 0 0.709-0.709L14.032 4.15a0.501 0.501 0 0 0-0.709 0.709l0.647 0.647l-1.046 1.046l-0.394-0.399l-0.501-0.501a0.501 0.501 0 1 0-0.709 0.709h0l0.146 0.146l-2.145 2.15a0.505 0.505 0 0 0-0.146 0.355v1.29l-1.853 1.857a0.496 0.496 0 0 0 0 0.709a0.501 0.501 0 0 0 0.709 0h0l1.853-1.857h1.294a0.492 0.492 0 0 0 0.355-0.146l2.145-2.145l0.146 0.146a0.501 0.501 0 0 0 0.709-0.709h0l-0.501-0.501l-0.394-0.394L14.679 6.215Zm-4.352 3.147H10.176V9.215l1.999-1.999L12.968 7.988Z" />
</g>
<g class="root" id="pdf" data-name="pdf">
	<path d="M18.803 11.142C19.275 11.142 19.657 10.759 19.657 10.285L19.657 7.714C19.657 7.487 19.566 7.268 19.406 7.107L12.569 0.25C12.49 0.171 12.396 0.108 12.293 0.066C12.19 0.022 12.078 0 11.966 0L1.71 0C1.239 0 0.857 0.384 0.857 0.857L0.857 23.142C0.857 23.616 1.239 24 1.71 24L18.803 24C19.275 24 19.657 23.616 19.657 23.142L19.657 20.571C19.657 20.098 19.275 19.714 18.803 19.714C18.33 19.714 17.948 20.098 17.948 20.571L17.948 22.285L2.566 22.285L2.566 1.715L11.111 1.715L11.111 7.714C11.111 8.187 11.494 8.571 11.966 8.571L17.948 8.571L17.948 10.285C17.948 10.759 18.33 11.142 18.803 11.142ZM12.82 2.926L16.739 6.857L12.82 6.857L12.82 2.926ZM12.102 12.857C13.045 12.793 13.859 13.508 13.923 14.453C13.928 14.526 13.928 14.6 13.923 14.674C13.968 15.619 13.241 16.422 12.299 16.469C12.228 16.472 12.158 16.472 12.087 16.469L11.233 16.469L11.233 18L9.88 18L9.88 12.857L12.102 12.857ZM11.248 15.428L11.701 15.428C12.248 15.428 12.556 15.188 12.556 14.631C12.594 14.231 12.304 13.874 11.904 13.834C11.857 13.829 11.809 13.829 11.761 13.834L11.206 13.834L11.248 15.428ZM16.624 12.857C18.247 12.857 18.948 13.834 18.948 15.428C18.948 17.022 18.222 18 16.624 18L14.53 18L14.53 12.857L16.624 12.857ZM15.889 16.937L16.393 16.937C17.051 16.937 17.572 16.688 17.572 15.437C17.572 14.58 17.341 13.911 16.402 13.911L15.898 13.911L15.889 16.937ZM19.657 18L19.657 12.857L23.144 12.857L23.144 13.928L21.008 13.928L21.008 15.077L22.948 15.077L22.948 16.114L21.008 16.114L21.008 18L19.657 18Z" />
</g>
<g class="root" id="phone" data-name="phone">
	<path d="M2.258 1.369L3.51 0.118a0.446 0.446 0 0 1 0.604 0L9.365 5.369a0.46 0.46 0 0 1 0 0.619l-1.252 1.252l-1.439 1.151a12.416 12.416 0 0 0 3.568 5.323A12.502 12.502-3.18 0 0 15.523 17.281l1.165-1.439l1.223-1.223a0.46 0.46 0 0 1 0.619 0L23.824 19.957a0.446 0.446 0 0 1 0 0.604l-1.252 1.252a8.028 8.028 0 0 1-4.776 2.187c-2.59-0.532-7.294-3.438-10.79-6.934S0.604 8.75 0.057 6.175A8.2 8.2-3.18 0 1 2.258 1.369Z" />
</g>
<g class="root" id="pin" data-name="pin">
	<path d="M4.51 13.907l0 0.067c0 0.08 0.12 0.16 0.173 0.253l6.525 9.34a1.014 1.014 0 0 0 1.414 0.253a0.774 0.774 0 0 0 0.253-0.253l6.511-9.34c0.067-0.08 0.12-0.173 0.187-0.24l0-0.067h0a9.019 9.019 0 1 0-15.145 0ZM12.091 5.273a3.775 3.775 0 1 1-2.668 1.107A3.749 3.749 3.069 0 1 12.091 5.273Z" />
</g>
<g class="root" id="play" data-name="play">
	<path d="M22.727 13.882L3.271 23.768a2.24 2.24 0 0 1-3.018-1.052A2.187 2.187 0.011 0 1 0.011 21.77V2.209A2.177 2.177 0.011 0 1 1.062 0.316A2.65 2.65 0.011 0 1 2.219 0A3.155 3.155 0.011 0 1 3.166 0.21L22.727 9.886a2.314 2.314 0 0 1 1.262 1.998A2.398 2.398 0.011 0 1 22.727 13.882Z" />
</g>
<g class="root" id="play2" data-name="play2">
	<path d="M23.174 0H0.803A0.804 0.804-0.001 0 0-0.001 0.803v22.393a0.804 0.804 0 0 0 0.804 0.804h22.393a0.804 0.804 0 0 0 0.804-0.804v-22.393A0.847 0.847-0.001 0 0 23.174 0ZM16.39 12.68L9.439 16.685a0.742 0.742 0 0 1-0.777 0a0.795 0.795 0 0 1-0.386-0.689V7.973a0.795 0.795 0 0 1 0.386-0.694a0.843 0.843 0 0 1 0.804 0l6.951 4.018a0.786 0.786 0 0 1 0.386 0.689A0.808 0.808-0.001 0 1 16.39 12.68Z" />
</g>
<g class="root" id="polaroid" data-name="polaroid">
	<path d="M0.32 24H16.363v-19.343H0.32ZM1.416 5.974H15.267V19.563H1.416ZM23.679 1.771L21.559 21.004L16.826 20.48V16.017l4.115 0.459l1.517-13.509L8.664 1.437l-0.3 2.697H7.276L7.735 0Z" />
</g>
<g class="root" id="programs" data-name="programs">
	<path d="M22.145 7.493V6.501a1.289 1.289 0 0 0-1.289-1.289h0A1.281 1.281 0.491 0 0 19.553 6.501h0V19.296s0 0 0 0h0l0.587 2.493a0.343 0.343 0 0 0 0.335 0.267v0.366a0.358 0.358 0 0 0 0.358 0.351a0.358 0.358 0 0 0 0.351-0.351v-0.366a0.358 0.358 0 0 0 0.343-0.274l0.579-2.493a0.229 0.229 0 0 0 0-0.076V8.202c0.389 0.053 0.701 0.282 0.701 0.557v4.628a0.351 0.351 0 1 0 0.701 0V8.758A1.395 1.395 0.491 0 0 22.145 7.493ZM20.933 21.362h-0.152l-0.427-1.792h0.991Zm0.511-2.486H20.27v-10.674h1.174Zm0-11.437H20.27V6.501a0.587 0.587 0 0 1 0.587-0.587h0a0.595 0.595 0 0 1 0.587 0.587h0ZM18.074 2.842H14.62V2.514a0.358 0.358 0 0 0-0.351-0.351H11.867a2.501 2.501 0 0 0-4.956 0h-2.287A0.358 0.358 0.491 0 0 4.304 2.514v0.328H0.842A0.366 0.366 0.491 0 0 0.491 3.192V23.649a0.358 0.358 0 0 0 0.351 0.351h17.232a0.358 0.358 0 0 0 0.358-0.351V3.2a0.358 0.358 0 0 0-0.358-0.351h0ZM9.382 0.722A1.799 1.799 0.491 0 1 11.166 2.171H7.613A1.815 1.815 0.491 0 1 9.382 0.722ZM4.998 2.872h8.921V4.283H4.998Zm11.284 2.112V21.865H2.634V4.984Zm1.433 18.299H1.193V3.551H4.304v0.762H2.283a0.351 0.351 0 0 0-0.351 0.351V22.216a0.351 0.351 0 0 0 0.351 0.351H16.64a0.358 0.358 0 0 0 0.351-0.351v-17.537a0.351 0.351 0 0 0-0.351-0.351H14.62v-0.762H17.723ZM4.037 11.29H6.591a0.351 0.351 0 0 0 0.351-0.351V8.072A0.351 0.351 0.491 0 0 6.591 7.721H4.037a0.343 0.343 0 0 0-0.351 0.351v2.867a0.343 0.343 0 0 0 0.351 0.351ZM4.388 8.4H6.271v2.173H4.388Zm3.37 1.09A0.343 0.343 0.491 0 1 8.116 9.162h6.443a0.351 0.351 0 0 1 0.351 0.351a0.358 0.358 0 0 1-0.351 0.351H8.116a0.351 0.351 0 0 1-0.351-0.351ZM4.037 15.689H6.591a0.351 0.351 0 0 0 0.351-0.351V12.472A0.351 0.351 0.491 0 0 6.591 12.121H4.037a0.343 0.343 0 0 0-0.351 0.351V15.338a0.351 0.351 0 0 0 0.351 0.351Zm0.351-2.874H6.271v2.173H4.388Zm3.37 1.09a0.343 0.343 0 0 1 0.351-0.351h6.443a0.351 0.351 0 0 1 0.351 0.351a0.358 0.358 0 0 1-0.351 0.351H8.116a0.358 0.358 0 0 1-0.351-0.351ZM4.037 20.089H6.591a0.351 0.351 0 0 0 0.351-0.351V16.871A0.351 0.351 0.491 0 0 6.591 16.52H4.037a0.343 0.343 0 0 0-0.351 0.351v2.867a0.351 0.351 0 0 0 0.351 0.351Zm0.351-2.874H6.271v2.173H4.388ZM7.758 18.312a0.343 0.343 0 0 1 0.351-0.351h6.443a0.351 0.351 0 0 1 0.351 0.351a0.358 0.358 0 0 1-0.351 0.351H8.116A0.358 0.358 0.491 0 1 7.758 18.312Zm0-7.365a0.351 0.351 0 0 1 0.351-0.351h6.443a0.358 0.358 0 0 1 0.351 0.351a0.358 0.358 0 0 1-0.351 0.358H8.116a0.358 0.358 0 0 1-0.351-0.358Zm0 4.399a0.351 0.351 0 0 1 0.351-0.351h6.443a0.358 0.358 0 0 1 0.351 0.351a0.351 0.351 0 0 1-0.351 0.351H8.116a0.351 0.351 0 0 1-0.351-0.343Zm0 4.399a0.351 0.351 0 0 1 0.351-0.351h6.443a0.358 0.358 0 0 1 0.351 0.351a0.351 0.351 0 0 1-0.351 0.351H8.116a0.351 0.351 0 0 1-0.351-0.351Z" />
</g>
<g class="root" id="quote_left" data-name="quote left">
	<path d="M13.097 14.304c0-3.034 4.631-7.89 6.189-9.586a1.535 1.535 0 0 1 2.166-0.067l0.032 0.028l0.039 0.039a1.538 1.538 0 0 1 0.039 2.079A22.26 22.26 0 0 0 19.724 8.955A5.562 5.562 0 0 1 24 14.304A5.475 5.475 0 0 1 18.54 19.775A5.42 5.42 0 0 1 13.097 14.367ZM5.523 19.775A5.467 5.467 0 0 0 6.627 8.955c0.6-0.757 1.183-1.479 1.838-2.158a1.495 1.495 0 0 0-0.039-2.075l-0.039-0.039a1.503 1.503 0 0 0-2.122-0.039l-0.075 0.079C4.631 6.359 0 11.27 0 14.304A5.523 5.523 0 0 0 5.523 19.775Z" />
</g>
<g class="root" id="quote_right" data-name="quote right">
	<path d="M10.911 9.695c0 3.036-4.634 7.895-6.193 9.592a1.536 1.536 0 0 1-2.167 0.067l-0.032-0.028l-0.039-0.039a1.536 1.536 0 0 1-0.039-2.08a22.275 22.275 0 0 0 1.836-2.159A5.566 5.566 0 0 1 0 9.695A5.479 5.479 0 0 1 5.475 4.22A5.424 5.424 0 0 1 10.911 9.632ZM18.502 4.22A5.471 5.471 0 0 0 17.369 15.047c-0.6 0.758-1.184 1.48-1.839 2.159a1.496 1.496 0 0 0 0.039 2.076l0.039 0.039a1.504 1.504 0 0 0 2.124 0.039l0.075-0.079c1.579-1.638 6.193-6.553 6.193-9.588A5.526 5.526 0 0 0 18.502 4.22Z" />
</g>
<g class="root" id="ribbon" data-name="ribbon">
	<path id="Path_339" class="cls-1" d="M21.109 0.005H2.68A0.617 0.617 1.993 0 0 1.993 0.529A0.384 0.384 1.993 0 0 1.993 0.692V23.275a0.803 0.803 0 0 0 0.884 0.721a0.838 0.838 0 0 0 0.5-0.256l8.749-8.284L20.609 23.729a0.803 0.803 0 0 0 1.163 0a0.733 0.733 0 0 0 0.244-0.5V0.692a0.733 0.733 0 0 0-0.698-0.686Z" />
</g>
<g class="root" id="scales_hand" data-name="scales-hand">
	<path class="cls-1" d="M9.884 10.214c1.83 0 3.319-1.293 3.319-2.881v-0.693h-0.706l-1.559-3.12c0.85-0.134 1.354-0.484 1.81-0.802 0.423-0.295 0.8-0.557 1.476-0.644V10.973c-0.349 0.171-1.062 0.261-1.532 0.261-0.282 0-0.511 0.229-0.511 0.511s0.229 0.511 0.511 0.511c0.244 0 1.329-0.022 2.043-0.401 0.714 0.379 1.799 0.401 2.043 0.401 0.282 0 0.51-0.229 0.511-0.51 0-0.282-0.228-0.511-0.51-0.512-0.471-0.001-1.184-0.091-1.533-0.261V2.074c0.676 0.087 1.053 0.349 1.476 0.644 0.456 0.318 0.959 0.668 1.81 0.802l-1.559 3.12h-0.706v0.693c0 1.589 1.489 2.881 3.319 2.881s3.319-1.293 3.319-2.881v-0.693h-0.706l-1.689-3.38c0.438-0.221 0.791-0.533 0.854-0.866 0.052-0.277-0.13-0.544-0.406-0.596-0.252-0.048-0.495 0.098-0.577 0.333-0.124 0.136-0.638 0.425-1.089 0.425-1.018 0-1.467-0.313-1.986-0.674-0.498-0.347-1.054-0.734-2.059-0.833V0.511c0-0.282-0.229-0.511-0.511-0.511s-0.511 0.229-0.511 0.511v0.535c-1.005 0.099-1.562 0.486-2.059 0.833-0.52 0.362-0.968 0.674-1.986 0.674-0.45 0-0.966-0.288-1.089-0.425-0.082-0.235-0.326-0.38-0.577-0.333-0.277 0.052-0.459 0.32-0.406 0.596 0.063 0.333 0.415 0.645 0.854 0.866l-1.689 3.38h-0.706v0.693c0 1.589 1.489 2.881 3.319 2.881Zm9.703-1.021c-1.129 0-2.07-0.663-2.262-1.532h4.524c-0.192 0.869-1.134 1.532-2.262 1.532Zm-1.472-2.553l1.472-2.945l1.472 2.945h-2.943Zm-8.231 2.553c-1.129 0-2.07-0.663-2.262-1.532h4.524c-0.192 0.869-1.134 1.532-2.262 1.532Zm0-5.499l1.472 2.945h-2.943l1.472-2.945Zm13.942 8.258c-0.396-0.534-1.37-0.983-2.568-0.704-1.086 0.252-1.699 1.013-2.306 2.161l-1.722 0.894c-0.342-0.31-0.835-0.515-1.475-0.515h-3.034c-0.094-0.038-0.314-0.205-0.461-0.318-0.43-0.33-0.918-0.704-1.468-0.704h-2.553c-0.847 0-1.817 0.624-2.391 1.158-0.004 0.004-0.009 0.008-0.012 0.012-0.507 0.507-1.264 1.233-1.708 1.656l-0.634-0.634c-0.199-0.199-0.523-0.199-0.722 0L0.22 17.512c-0.199 0.199-0.199 0.523 0 0.722l5.617 5.617c0.1 0.1 0.231 0.149 0.362 0.149s0.261-0.05 0.362-0.149l2.553-2.553c0.199-0.199 0.199-0.523 0-0.722l-0.114-0.114c0.069-0.022 0.152-0.035 0.265-0.035h7.515c0.226 0 0.566 0 2.454-1.758 0.907-0.844 1.805-1.756 2.012-1.989 0.401-0.45 2.144-3.06 2.642-4.224 0.071-0.167 0.049-0.36-0.059-0.505ZM6.199 22.769L1.304 17.874l1.831-1.831l4.895 4.895l-1.831 1.831Zm14.283-6.767c-0.585 0.656-3.174 3.162-3.754 3.404h-7.465c-0.479 0-0.795 0.145-1.013 0.307l-3.398-3.398c0.447-0.427 1.194-1.143 1.702-1.648 0.472-0.437 1.201-0.878 1.688-0.878h2.553c0.203 0 0.59 0.297 0.847 0.492 0.37 0.284 0.69 0.529 1.051 0.529h3.064c0.706 0 1.021 0.385 1.021 0.766s-0.316 0.766-1.021 0.766h-4.596c-0.282 0-0.511 0.229-0.511 0.511s0.229 0.511 0.511 0.511h4.596c1.341 0 2.043-0.9 2.043-1.787 0-0.132-0.016-0.264-0.047-0.392l1.814-0.942c0.094-0.049 0.171-0.126 0.219-0.22 0.595-1.159 1.042-1.625 1.704-1.778 0.553-0.129 1.025-0.018 1.302 0.141-0.59 1.162-1.99 3.259-2.309 3.618ZM2.773 18.235l0.722-0.722l1.021 1.021l-0.722 0.722l-1.021-1.021Z" />
</g>
<g class="root" id="scales_wreath" data-name="scales-wreath">
	<path class="cls-1" d="M1.862 17.949c-0.689-0.308-1.145-0.99-1.616-1.916l-0.206-0.403l0.381-0.243c0.676-0.431 1.403-0.56 2.1-0.373 0.851 0.227 1.59 0.901 2.139 1.947 0.128 0.244 0.034 0.546-0.21 0.673-0.244 0.128-0.546 0.034-0.673-0.21-0.415-0.793-0.938-1.294-1.512-1.447-0.293-0.078-0.593-0.063-0.894 0.046 0.331 0.581 0.604 0.886 0.898 1.017 0.251 0.112 0.364 0.408 0.251 0.659-0.083 0.186-0.265 0.295-0.456 0.295-0.068 0-0.138-0.014-0.204-0.044Zm4.525 1.443l0.303 0.345l-0.318 0.33c-0.662 0.688-1.369 1.037-2.097 1.037-0.018 0-0.034 0-0.052 0-0.826-0.019-1.65-0.488-2.448-1.396l-0.303-0.345l0.318-0.33c0.615-0.637 1.352-0.965 2.134-0.948 0.877 0.02 1.728 0.472 2.463 1.307Zm-1.093 0.311c-0.448-0.397-0.923-0.611-1.392-0.621-0.357-0.01-0.706 0.105-1.03 0.329 0.48 0.451 0.94 0.685 1.373 0.694 0.347 0.009 0.692-0.125 1.048-0.403ZM1.268 14.15c0.219 0.166 0.533 0.122 0.699-0.098 0.166-0.22 0.122-0.533-0.098-0.698-0.405-0.305-0.669-0.849-0.787-1.617 0.328 0.058 0.622 0.196 0.869 0.411 0.493 0.431 0.783 1.141 0.839 2.054 0.016 0.264 0.235 0.468 0.498 0.468 0.01 0 0.021 0 0.031-0.001 0.275-0.017 0.485-0.253 0.468-0.528-0.072-1.184-0.48-2.133-1.178-2.744-0.575-0.503-1.307-0.737-2.117-0.679l-0.492 0.036l0.03 0.493c0.084 1.369 0.501 2.346 1.24 2.904Zm0.912-3.835c0.235-0.144 0.308-0.451 0.165-0.686-0.273-0.447-0.339-1.051-0.198-1.802 0.855 0.565 1.141 1.664 0.746 2.997-0.079 0.264 0.072 0.542 0.336 0.621 0.048 0.014 0.096 0.021 0.142 0.021 0.215 0 0.413-0.141 0.478-0.357 0.613-2.064-0.141-3.86-1.874-4.468l-0.495-0.174l-0.149 0.502c-0.387 1.304-0.332 2.374 0.162 3.181 0.144 0.235 0.451 0.308 0.686 0.165Zm1.503-3.609c0.272-0.039 0.462-0.292 0.422-0.565-0.075-0.52 0.101-1.098 0.525-1.728 0.564 0.864 0.395 1.988-0.493 3.053-0.177 0.211-0.149 0.527 0.064 0.702 0.094 0.078 0.207 0.116 0.319 0.116 0.143 0 0.284-0.061 0.383-0.179 1.375-1.647 1.391-3.595 0.042-4.85l-0.385-0.358l-0.337 0.404c-0.869 1.04-1.24 2.044-1.104 2.984 0.039 0.272 0.293 0.462 0.565 0.422ZM21.473 15.012c-0.851 0.227-1.59 0.901-2.139 1.947-0.128 0.244-0.034 0.546 0.21 0.673 0.244 0.128 0.546 0.034 0.673-0.21 0.415-0.793 0.938-1.294 1.512-1.447 0.293-0.078 0.593-0.063 0.894 0.046-0.331 0.581-0.604 0.886-0.898 1.017-0.251 0.112-0.364 0.408-0.251 0.659 0.083 0.186 0.265 0.295 0.456 0.295 0.068 0 0.138-0.014 0.204-0.044 0.689-0.308 1.145-0.99 1.616-1.916l0.206-0.403l-0.381-0.243c-0.676-0.431-1.403-0.56-2.1-0.373Zm0.732 4.02l0.318 0.33l-0.303 0.345c-0.798 0.907-1.621 1.378-2.448 1.396-0.018 0-0.035 0-0.052 0-0.729 0-1.435-0.348-2.097-1.037l-0.318-0.33l0.303-0.345c0.734-0.835 1.585-1.287 2.463-1.307 0.783-0.018 1.52 0.31 2.134 0.948Zm-1.082 0.379c-0.323-0.224-0.67-0.338-1.029-0.329-0.469 0.011-0.944 0.223-1.392 0.621 0.355 0.278 0.701 0.412 1.048 0.403 0.432-0.01 0.893-0.243 1.373-0.694Zm2.383-8.693c-0.81-0.059-1.543 0.177-2.117 0.679-0.698 0.611-1.105 1.56-1.178 2.744-0.017 0.275 0.193 0.511 0.468 0.528 0.011 0 0.021 0.001 0.031 0.001 0.261 0 0.481-0.204 0.498-0.468 0.056-0.912 0.346-1.623 0.839-2.054 0.245-0.215 0.541-0.353 0.869-0.411-0.119 0.769-0.383 1.311-0.787 1.617-0.22 0.166-0.263 0.479-0.098 0.698 0.166 0.22 0.479 0.263 0.699 0.098 0.739-0.558 1.156-1.535 1.24-2.904l0.03-0.493l-0.492-0.036Zm-3.361 0.39c0.064 0.217 0.263 0.357 0.478 0.357 0.047 0 0.095-0.007 0.142-0.021 0.264-0.079 0.415-0.356 0.336-0.621-0.395-1.333-0.109-2.432 0.746-2.997 0.142 0.75 0.076 1.355-0.198 1.802-0.144 0.235-0.07 0.542 0.165 0.686 0.235 0.144 0.542 0.07 0.686-0.165 0.495-0.807 0.549-1.877 0.162-3.181l-0.149-0.502l-0.495 0.174c-1.734 0.608-2.487 2.403-1.874 4.468Zm-0.67-2.824c0.113 0 0.226-0.038 0.319-0.116 0.211-0.177 0.24-0.491 0.064-0.702-0.888-1.063-1.056-2.188-0.493-3.053 0.423 0.629 0.6 1.208 0.525 1.728-0.039 0.272 0.15 0.526 0.422 0.565 0.272 0.039 0.526-0.15 0.565-0.422 0.136-0.94-0.235-1.943-1.104-2.984l-0.337-0.404l-0.385 0.358c-1.349 1.255-1.333 3.204 0.042 4.85 0.099 0.119 0.24 0.179 0.383 0.179Zm-5.982 5.81c0-0.081 0.019-0.156 0.053-0.222h0s1.71-3.423 1.71-3.423c-0.571-0.164-0.96-0.435-1.319-0.684-0.413-0.288-0.781-0.544-1.442-0.629V17.818c0.356 0.149 1.192 0.265 1.995 0.266 0.275 0 0.499 0.223 0.499 0.499 0 0.275-0.223 0.499-0.499 0.499-0.437 0-1.739-0.033-2.494-0.404-0.755 0.37-2.057 0.404-2.494 0.404-0.275 0-0.499-0.223-0.499-0.499s0.223-0.499 0.499-0.499c0.803 0 1.639-0.118 1.995-0.266V9.136c-0.66 0.085-1.029 0.341-1.442 0.629-0.358 0.249-0.747 0.52-1.319 0.684l1.71 3.422h0c0.034 0.068 0.053 0.143 0.053 0.223v0.179c0 1.552-1.231 2.814-2.743 2.814s-2.743-1.263-2.743-2.814v-0.179c0-0.081 0.019-0.156 0.053-0.222h0s1.702-3.406 1.702-3.406c-0.604-0.2-1.167-0.592-1.248-1.017-0.051-0.27 0.127-0.532 0.397-0.583 0.246-0.046 0.484 0.096 0.564 0.325 0.121 0.133 0.623 0.414 1.063 0.414 0.995 0 1.433-0.305 1.94-0.658 0.487-0.339 1.03-0.717 2.011-0.814v-0.523c0-0.275 0.223-0.499 0.499-0.499s0.499 0.223 0.499 0.499v0.523c0.982 0.097 1.524 0.475 2.011 0.814 0.508 0.353 0.946 0.658 1.94 0.658 0.44 0 0.944-0.281 1.063-0.414 0.08-0.229 0.317-0.371 0.564-0.325 0.27 0.051 0.448 0.312 0.397 0.583-0.081 0.425-0.644 0.817-1.248 1.017l1.702 3.406h0c0.034 0.068 0.053 0.143 0.053 0.223v0.179c0 1.552-1.231 2.814-2.743 2.814s-2.743-1.263-2.743-2.814v-0.179Zm-7.174-0.499h2.875l-1.438-2.877l-1.438 2.877Zm3.156 0.998h-3.438c0.146 0.849 0.861 1.496 1.718 1.496s1.572-0.647 1.718-1.496Zm8.48 0h-3.438c0.146 0.849 0.861 1.496 1.718 1.496s1.572-0.647 1.718-1.496Zm-0.28-0.998l-1.438-2.877l-1.438 2.877h2.875Z" />
</g>
<g class="root" id="search" data-name="search">
	<path d="M2.77 8.945a6.153 6.153 0 1 1 1.802 4.376A5.954 5.954-858.873 0 1 2.77 8.945Zm13.318 6.177l-0.384-0.384a8.546 8.546 0 0 0 2.124-5.792a8.69 8.69 0 0 0-2.574-6.338a8.524 8.524 0 0 0-6.306-2.606a8.9 8.9 0 0 0-8.947 8.945a8.521 8.521 0 0 0 2.607 6.306a8.681 8.681 0 0 0 6.338 2.574a8.546 8.546 0 0 0 5.792-2.123l0.384 0.384v1.094l6.818 6.818l2.06-2.06l-6.818-6.818Z" />
</g>
<g class="root" id="site" data-name="site">
	<path d="M22.976 23.999L1.014 23.999C0.454 23.999-0.005 23.541-0.005 22.981L-0.005 1.019C-0.005 0.458 0.454-0.001 1.014-0.001L11.969-0.001C12.53-0.001 12.989 0.458 12.989 1.019C12.989 1.579 12.53 2.038 11.969 2.038L1.982 2.038L1.982 22.012L21.906 22.012L21.906 12.025C21.906 11.465 22.365 11.006 22.925 11.006C23.485 11.006 23.945 11.465 23.995 12.025L23.995 22.981C23.995 23.541 23.537 23.999 22.976 23.999ZM22.976 8.713C22.415 8.713 21.957 8.254 21.957 7.693L21.957 3.465L12.683 12.738C12.479 12.942 12.224 13.044 11.969 13.044C11.715 13.044 11.46 12.942 11.256 12.738C10.849 12.331 10.849 11.719 11.256 11.312L20.479 2.088L16.25 2.088C15.689 2.088 15.231 1.63 15.231 1.069C15.231 0.509 15.689 0.051 16.25 0.051L22.874 0.051C22.925 0.051 23.027 0.051 23.078 0.051C23.129 0.051 23.129 0.051 23.18 0.051C23.231 0.101 23.231 0.101 23.281 0.101C23.333 0.101 23.333 0.152 23.384 0.152C23.435 0.152 23.485 0.203 23.485 0.203C23.587 0.305 23.689 0.407 23.74 0.509C23.791 0.509 23.791 0.559 23.791 0.559C23.791 0.611 23.842 0.611 23.842 0.662C23.893 0.713 23.893 0.713 23.893 0.764C23.893 0.815 23.945 0.815 23.995 0.865C23.995 0.917 23.995 1.019 23.995 1.069L23.995 7.693C23.995 8.254 23.537 8.713 22.976 8.713Z" />
</g>
<g class="root" id="speaking_people" data-name="speaking-people">
	<path class="cls-1" d="M18.575 21.17c0.265-0.375 0.425-0.85 0.425-1.385v-0.57c0-1.26-0.86-2.215-2-2.215s-2 0.95-2 2.215v0.57c0 0.54 0.165 1.015 0.43 1.39-0.195 0.045-0.385 0.105-0.575 0.175-0.28-0.61-0.965-0.985-1.785-1.18 0.265-0.375 0.425-0.85 0.425-1.385v-0.57c0-1.26-0.86-2.215-2-2.215s-2 0.95-2 2.215v0.57c0 0.535 0.16 1.01 0.425 1.385-0.82 0.195-1.505 0.57-1.785 1.18-0.19-0.07-0.38-0.13-0.575-0.175 0.27-0.375 0.43-0.85 0.43-1.39v-0.57c0-1.26-0.86-2.215-2-2.215s-2 0.95-2 2.215v0.57c0 0.535 0.16 1.01 0.425 1.385-1.08 0.255-1.925 0.82-1.925 1.83v1h1v-1c0-0.735 1.495-1 2.5-1 0.615 0 1.46 0.1 2 0.375v1.625h1v-2c0-0.735 1.495-1 2.5-1s2.5 0.265 2.5 1v2h1v-1.625c0.54-0.275 1.385-0.375 2-0.375 1.005 0 2.5 0.265 2.5 1v1h1v-1c0-1.01-0.85-1.575-1.925-1.83Zm-13.575-1.385v-0.57c0-0.585 0.315-1.215 1-1.215s1 0.63 1 1.215v0.57c0 0.585-0.315 1.215-1 1.215s-1-0.63-1-1.215Zm5.5-1v-0.57c0-0.585 0.315-1.215 1-1.215s1 0.63 1 1.215v0.57c0 0.585-0.315 1.215-1 1.215s-1-0.63-1-1.215Zm5.5 1v-0.57c0-0.585 0.315-1.215 1-1.215s1 0.63 1 1.215v0.57c0 0.585-0.315 1.215-1 1.215s-1-0.63-1-1.215ZM5 11v2c0 0.44 0.27 0.81 0.685 0.95 0.11 0.035 0.215 0.055 0.325 0.055 0.305 0 0.6-0.145 0.79-0.4l1.95-2.6h6.25c1.105 0 2-0.895 2-2V2c0-1.105-0.895-2-2-2H3.5C2.395 0 1.5 0.895 1.5 2v7c0 1.105 0.895 2 2 2h1.5Zm-2.5-2V2c0-0.55 0.45-1 1-1H15c0.55 0 1 0.45 1 1v7c0 0.55-0.45 1-1 1H8.25l-2.25 3v-3H3.5c-0.55 0-1-0.45-1-1ZM22.5 5v7c0 1.105-0.895 2-2 2h-1v1.65c0 0.425-0.255 0.79-0.655 0.94-0.115 0.04-0.235 0.065-0.35 0.065-0.285 0-0.56-0.125-0.755-0.35l-1.97-2.3h-3.77c-1.105 0-2-0.895-2-2v-0.5h1v0.5c0 0.55 0.45 1 1 1h4.23l2.27 2.65v-2.65h2c0.55 0 1-0.45 1-1V5c0-0.55-0.45-1-1-1h-3v-1h3c1.105 0 2 0.895 2 2Z" />
</g>
<g class="root" id="star" data-name="star">
	<polygon points="12 18.1 19.4 23.5 16.6 14.7 24 9.5 15 9.5 12 0.5 9 9.5 0 9.5 7.4 14.7 4.6 23.5" xmlns="http://www.w3.org/2000/svg" />
</g>
<g class="root" id="stopwatch" data-name="stopwatch">
	<path d="M13.6 22.396c4.859 0 8.799-3.939 8.799-8.799S18.459 4.799 13.6 4.799S4.801 8.738 4.801 13.598C4.806 18.457 8.745 22.391 13.6 22.396zM6.801 13.198h-1.18c0.21-4.094 3.484-7.369 7.579-7.579V6.799c0 0.22 0.18 0.4 0.4 0.4s0.4-0.18 0.4-0.4v-1.18c4.094 0.21 7.369 3.484 7.579 7.579H19.999c-0.22 0-0.4 0.18-0.4 0.4s0.18 0.4 0.4 0.4h1.58c-0.21 4.094-3.484 7.369-7.579 7.579V20.397c0-0.22-0.18-0.4-0.4-0.4s-0.4 0.18-0.4 0.4v1.18c-4.094-0.21-7.369-3.484-7.579-7.579H6.801c0.22 0 0.4-0.18 0.4-0.4S7.021 13.198 6.801 13.198z" />
	<path d="M22.603 8.403c-0.12-0.205-0.245-0.41-0.38-0.605l0.99-0.99c0.155-0.155 0.155-0.41 0-0.565l-2.26-2.26c-0.155-0.155-0.41-0.155-0.565 0L19.399 4.974c-1.6-1.08-3.469-1.69-5.399-1.765V0.8h2.8c0.22 0 0.4-0.18 0.4-0.4s-0.18-0.4-0.4-0.4H10.4c-0.22 0-0.4 0.18-0.4 0.4s0.18 0.4 0.4 0.4h2.8v2.415C9.635 3.349 6.386 5.309 4.601 8.398H2.401c-0.22 0-0.4 0.18-0.4 0.4s0.18 0.4 0.4 0.4h2.4c0.01 0 0.02-0.005 0.03-0.005c0.145 0 0.28-0.075 0.35-0.2c2.545-4.649 8.379-6.359 13.028-3.814s6.359 8.379 3.814 13.028c-2.545 4.649-8.379 6.359-13.028 3.814c-1.61-0.88-2.935-2.205-3.814-3.814c-0.07-0.125-0.205-0.205-0.35-0.2c-0.01 0-0.02-0.005-0.03-0.005H2.401c-0.22 0-0.4 0.18-0.4 0.4s0.18 0.4 0.4 0.4h2.2c2.87 4.969 9.229 6.674 14.198 3.804C23.773 19.732 25.473 13.378 22.603 8.403zM20.054 5.454l0.62-0.62l1.695 1.695L21.748 7.149C21.248 6.519 20.679 5.949 20.054 5.454z" />
	<path d="M4.001 13.598c0-0.22-0.18-0.4-0.4-0.4H0.402c-0.22 0-0.4 0.18-0.4 0.4s0.18 0.4 0.4 0.4h3.2C3.821 13.998 4.001 13.818 4.001 13.598z" />
	<path d="M1.202 11.598h2.8c0.22 0 0.4-0.18 0.4-0.4s-0.18-0.4-0.4-0.4H1.202c-0.22 0-0.4 0.18-0.4 0.4S0.982 11.598 1.202 11.598z" />
	<path d="M4.401 15.997c0-0.22-0.18-0.4-0.4-0.4H1.202c-0.22 0-0.4 0.18-0.4 0.4s0.18 0.4 0.4 0.4h2.8C4.221 16.397 4.401 16.217 4.401 15.997z" />
	<path d="M12.52 16.282c0.155 0.155 0.41 0.155 0.565 0l5.559-5.559c0.155-0.16 0.15-0.41-0.01-0.565c-0.155-0.15-0.4-0.15-0.555 0L12.8 15.432l-2.38-2.38c-0.16-0.155-0.41-0.15-0.565 0.01c-0.15 0.155-0.15 0.4 0 0.555L12.52 16.282z" />
</g>
<g class="root" id="success" data-name="success">
	<path class="fill-light" d="M14.622 18.353l0.316-0.203l0.751 1.164l-0.316 0.203l-0.316 0.203l-0.751-1.164L14.622 18.353zM15.747 1.503h-0.751v0.718h0.751V1.503zM18.747 1.503h-0.751v0.718h0.751V1.503zM21.747 0.002h-0.751v0.751h0.751V0.002zM21.747 1.503h-0.751v0.718h0.751V1.503zM18.747 0.002h-0.751v0.751h0.751V0.002zM15.747 0.002h-0.751v0.751h0.751V0.002zM18 19.518h0.374h0.374v-2.289h-0.374h-0.374V19.518zM19.505 19.445l0.366 0.073l0.37 0.073l0.374-1.915l-0.37-0.073l-0.366-0.073L19.505 19.445zM16.131 17.675L16.505 19.59l0.366-0.073l0.37-0.073l-0.374-1.915l-0.37 0.073L16.131 17.675zM21.058 19.315l0.316 0.203l0.316 0.203l0.751-1.164l-0.316-0.203l-0.316-0.203L21.058 19.315zM22.498 21.749v-1.495h-8.249v1.498h-1.498v1.498H0v0.374v0.374h12.751h11.249v-2.249H22.498zM8.923 10.123H0v-2.249h8.924l0.762-0.374h5.314v-1.498h-0.751v-3h8.249v3h-0.751v5.996h0.751v3h-8.249v-3h0.751v-1.498H9.685L8.923 10.123zM19.483 7.5h0.374h0.374V6.749h-0.374h-0.374V7.5zM19.483 10.5h0.374h0.374v-0.751h-0.374h-0.374V10.5z" />
	<path class="fill-btn" d="M9.859 8.254h0.638v1.498h-0.638l-0.762-0.374H0.751v-0.751h8.347L9.859 8.254zM14.996 14.251h6.751v-1.498h-6.751V14.251zM15 3.752v1.498h6.751v-1.498H15zM21 6.002h-2.626h-2.626v1.498v3.004v1.498h2.626h2.626V6.002z" />
	<path class="fill-white" d="M15 9.752h-2.249v-1.498h2.249V9.752zM11.249 9.749h0.751v-1.498h-0.751V9.749zM22.498 22.5h-4.125H13.498v0.751h9.751v-0.751H22.498zM15 21.752h3.377h3.374v-0.751h-6.751V21.752z" />
</g>
<g class="root" id="therapies" data-name="therapies">
	<path d="M12.002 11.947a3.44 3.44 0 1 0 0-6.881a3.517 3.517 0 0 0-2.425 0.836a3.394 3.394 0 0 0-1.025 2.605A3.445 3.445 0 0 0 12.002 11.947Zm-2.153-5.742a3.112 3.112 0 0 1 2.153-0.733a3.035 3.035 0 1 1-3.035 3.03a2.979 2.979 0 0 1 0.882-2.297Zm5.64 7.347a5.46 5.46 0 0 0-6.942 0a7.034 7.034 0 0 0-2.215 3.184l-0.041 0.123l0.092 0.092a8.111 8.111 0 0 0 11.28 0l0.092-0.092l-0.041-0.123a6.993 6.993 0 0 0-2.215-3.179ZM12.002 18.843a7.691 7.691 0 0 1-5.255-2.051a6.558 6.558 0 0 1 2.051-2.881a5.055 5.055 0 0 1 6.44 0a6.599 6.599 0 0 1 2.051 2.881a7.691 7.691 0 0 1-5.255 2.051Zm7.26-8.357A2.861 2.861 0 1 0 19.262 4.769a2.979 2.979 0 0 0-2.01 0.667A2.789 2.789 0 0 0 16.406 7.63a2.861 2.861 0 0 0 2.861 2.856Zm0-5.312a2.451 2.451 0 1 1-2.451 2.451c0-0.913 0.323-2.451 2.456-2.451ZM23.959 14.511a5.768 5.768 0 0 0-1.825-2.63a4.579 4.579 0 0 0-2.871-1.025a4.466 4.466 0 0 0-2.051 0.513a5.255 5.255 0 0 0-1.636 1.328l-0.133 0.169l0.169 0.128a7.604 7.604 0 0 1 2.564 3.44l0.041 0.113l0.118 0a7.06 7.06 0 0 0 0.928 0.067a6.665 6.665 0 0 0 4.645-1.877l0.092-0.092Zm-4.696 1.682a7.245 7.245 0 0 1-0.749-0.041a8.06 8.06 0 0 0-2.466-3.379a4.271 4.271 0 0 1 3.215-1.512a4.184 4.184 0 0 1 2.615 0.938A5.342 5.342 0 0 1 23.528 14.511a6.235 6.235 0 0 1-4.261 1.671ZM4.742 10.486a2.866 2.866 0 0 0 2.856-2.861A2.784 2.784 0 0 0 6.752 5.436A2.979 2.979 0 0 0 4.742 4.769a2.861 2.861 0 1 0 0 5.717ZM4.742 5.174C6.87 5.174 7.177 6.712 7.177 7.625A2.451 2.451 0 1 1 4.742 5.174ZM8.372 12.973l0.174-0.128l-0.138-0.164a5.127 5.127 0 0 0-1.636-1.333a4.491 4.491 0 0 0-2.051-0.513a4.543 4.543 0 0 0-2.871 1.025A5.773 5.773 0 0 0 0.041 14.511L0 14.634l0.092 0.092a6.665 6.665 0 0 0 4.645 1.877A6.229 6.229 0 0 0 5.665 16.561l0.123 0l0.041-0.113a7.619 7.619 0 0 1 2.564-3.44ZM5.496 16.151a7.424 7.424 0 0 1-0.754 0.041A6.25 6.25 0 0 1 0.471 14.511A5.378 5.378 0 0 1 2.122 12.203a4.163 4.163 0 0 1 2.615-0.943a4.291 4.291 0 0 1 3.22 1.512a8.091 8.091 0 0 0-2.466 3.379Z" />
</g>
<g class="root" id="victory" data-name="victory">
	<path class="fill-light" d="M23.776 16.104c-0.403-0.338-0.841-0.569-1.288-0.694c-0.025-2.691-1.084-5.216-2.991-7.122l-2.406-2.406h0.9v-0.375v-0.375h-1.381c-0.031-0.116-0.047-0.238-0.047-0.363c0-0.131 0.019-0.263 0.053-0.388h1.375v-0.375v-0.375h-0.875l1.897-1.897l0.878-0.772c0.128-0.113 0.166-0.3 0.088-0.45c-0.078-0.153-0.247-0.234-0.416-0.197l-0.866 0.191c-0.466 0.103-0.944 0.063-1.384-0.116l-0.238-0.097c-0.75-0.306-1.575-0.306-2.325 0c-0.566 0.231-1.191 0.231-1.759 0c-0.75-0.306-1.575-0.306-2.325 0l-0.228 0.094c-0.447 0.181-0.931 0.222-1.4 0.113l-0.797-0.184c-0.166-0.038-0.334 0.041-0.416 0.191c-0.078 0.15-0.05 0.334 0.075 0.45l0.753 0.706l1.972 1.972h-0.853v0.375v0.375h1.353c0.034 0.125 0.053 0.253 0.053 0.388c0 0.125-0.016 0.247-0.047 0.363h-1.359v0.375v0.375h0.875l-2.406 2.406c-1.928 1.928-2.991 4.494-2.991 7.222c0 0.078 0.003 0.153 0.009 0.231c-0.656 0.097-1.263 0.4-1.728 0.866l-3.531 3.138v4.188h3.806l12.779-2.469l7.122-4.363c0.169-0.103 0.278-0.281 0.291-0.478C24.014 16.425 23.929 16.232 23.776 16.104" />
	<path class="fill-white" d="M21.989 17.276l-2.61 1.597l-3.072 1.881L3.731 23.185h-2.985v-3.103l3.294-2.931c0.369-0.369 0.838-0.6 1.347-0.672c0.109-0.016 0.219-0.022 0.331-0.022h0.053h0.4h7.272c-0.2 1.022-1.222 1.397-2.113 1.397h-3.047v0.259v0.116v0.263v0.113h7.71l0.191-0.094l0.763-0.375l3.566-1.753c0.378-0.219 0.772-0.328 1.166-0.331c0.125 0 0.25 0.009 0.375 0.031c0.122 0.022 0.244 0.053 0.363 0.094c0.25 0.084 0.494 0.216 0.728 0.391L21.989 17.276z" />
	<path class="fill-btn" d="M11.291 3.247l-1.944-1.944c0.466 0.031 0.931-0.044 1.369-0.222l0.228-0.094c0.566-0.231 1.191-0.231 1.759 0c0.75 0.306 1.575 0.306 2.325 0c0.566-0.231 1.191-0.231 1.759 0l0.238 0.097c0.434 0.175 0.894 0.25 1.353 0.222l-1.938 1.938c-0.119 0.119-0.222 0.25-0.309 0.388h-4.531C11.513 3.494 11.41 3.365 11.291 3.247zM11.888 4.384c0.025 0.125 0.034 0.256 0.038 0.388c0 0.122-0.013 0.244-0.031 0.363h3.947c-0.022-0.119-0.031-0.241-0.031-0.363c0-0.131 0.013-0.263 0.034-0.388H11.888zM18.967 8.819l-2.525-2.525c-0.125-0.125-0.231-0.263-0.322-0.409h-1.722l2.006 2.006l-0.266 0.266l-0.266 0.266l-0.266-0.266l-1.741-1.741l-1.719 1.741l-0.259 0.263l-0.266-0.263l-0.266-0.263l1.981-2.009h-1.725c-0.088 0.15-0.197 0.288-0.322 0.413L8.769 8.816c-1.788 1.788-2.772 4.166-2.772 6.694c0 0.066 0 0.131 0.006 0.197h8.225v0.375c0 0.725-0.266 1.334-0.738 1.772h2.331l4.341-2.131c0.497-0.291 1.034-0.431 1.572-0.422C21.682 12.85 20.704 10.556 18.967 8.819z" />
</g>
<g class="root" id="videos" data-name="videos">
	<path d="M23.609 16.823H22.834V6.373A1.934 1.934 0 0 0 20.893 4.44h-17.772A1.934 1.934 0 0 0 1.159 6.373h0v10.45H0.384A0.384 0.384 0 0 0 0 17.235v0.775a1.55 1.55 0 0 0 1.55 1.55h20.9a1.55 1.55 0 0 0 1.55-1.543h0V17.235a0.391 0.391 0 0 0-0.391-0.384ZM1.934 6.373A1.159 1.159 0 0 1 3.093 5.215h17.772A1.159 1.159 0 0 1 22.038 6.373v10.45H1.934ZM23.218 17.982a0.768 0.768 0 0 1-0.768 0.775H1.55a0.768 0.768 0 0 1-0.775-0.768h0v-0.391H23.218ZM15.135 5.989H3.832A1.123 1.123 0 0 0 2.709 7.113v7.82a1.13 1.13 0 0 0 1.123 1.123h11.303a1.123 1.123 0 0 0 1.116-1.123v-7.82A1.116 1.116 0 0 0 15.135 5.989Zm0.341 8.936a0.341 0.341 0 0 1-0.341 0.348H3.832a0.348 0.348 0 0 1-0.348-0.348h0v-7.82a0.348 0.348 0 0 1 0.348-0.348h11.303a0.341 0.341 0 0 1 0.341 0.348ZM20.161 5.989H18.149A1.13 1.13 0 0 0 17.061 7.113v3.554a1.123 1.123 0 0 0 1.123 1.123h2.012a1.116 1.116 0 0 0 1.123-1.116v-3.554A1.123 1.123 0 0 0 20.161 5.989Zm0.348 4.685a0.355 0.355 0 0 1-0.348 0.348H18.149A0.348 0.348 0 0 1 17.772 10.674h0v-3.554a0.348 0.348 0 0 1 0.348-0.348h2.012a0.348 0.348 0 0 1 0.348 0.348ZM17.061 12.97a0.391 0.391 0 0 1 0.391-0.391h1.159a0.391 0.391 0 0 1 0.384 0.391a0.384 0.384 0 0 1-0.384 0.384H17.417A0.391 0.391 0 0 1 17.061 12.97Zm3.099 1.55a0.391 0.391 0 0 1-0.391 0.384H17.417a0.391 0.391 0 1 1 0-0.775h2.317a0.391 0.391 0 0 1 0.391 0.384ZM11.474 10.127v0L8.822 8.812A1.009 1.009 0 0 0 7.82 8.847a0.953 0.953 0 0 0-0.469 0.81v2.708A0.967 0.967 0 0 0 7.82 13.183a1.024 1.024 0 0 0 1.009 0l2.644-1.358a0.953 0.953 0 0 0 0-1.699Zm-0.263 0.945a0.178 0.178 0 0 1-0.1 0.092v0l-2.637 1.358a0.256 0.256 0 0 1-0.249 0a0.164 0.164 0 0 1-0.092-0.149V9.679a0.164 0.164 0 0 1 0.092-0.149a0.277 0.277 0 0 1 0.128-0.043a0.334 0.334 0 0 1 0.121 0l2.644 1.358a0.178 0.178 0 0 1 0.092 0.227Z" />
</g>
</svg>